<?xml version="1.0" encoding="utf-8"?>
<!-- Generator: Adobe Illustrator 27.8.0, SVG Export Plug-In . SVG Version: 6.00 Build 0)  -->
<svg version="1.1" id="Layer_1" xmlns="http://www.w3.org/2000/svg" xmlns:xlink="http://www.w3.org/1999/xlink" x="0px" y="0px"
	 viewBox="0 0 240.96 55.33" style="enable-background:new 0 0 240.96 55.33;" xml:space="preserve">
<style type="text/css">
	
		.st0{clip-path:url(#SVGID_00000058570063021584717050000002296693037269659534_);fill-rule:evenodd;clip-rule:evenodd;fill:#00529F;}
	
		.st1{clip-path:url(#SVGID_00000058570063021584717050000002296693037269659534_);fill-rule:evenodd;clip-rule:evenodd;fill:#FFFFFF;}
	.st2{clip-path:url(#SVGID_00000058570063021584717050000002296693037269659534_);fill:none;stroke:#FFFFFF;stroke-width:0.292;}
	.st3{fill-rule:evenodd;clip-rule:evenodd;fill:#A7A9AC;}
	.st4{fill:#231F20;}
	.st5{fill:none;stroke:#231F20;stroke-width:0.506;}
	.st6{clip-path:url(#SVGID_00000170244670855297854910000002565455820276424379_);fill:#231F20;}
</style>
<g>
	<defs>
		<rect id="SVGID_1_" y="0.01" width="240.96" height="55.32"/>
	</defs>
	<clipPath id="SVGID_00000144332211940988151350000003974691511675853989_">
		<use xlink:href="#SVGID_1_"  style="overflow:visible;"/>
	</clipPath>
	
		<polyline style="clip-path:url(#SVGID_00000144332211940988151350000003974691511675853989_);fill-rule:evenodd;clip-rule:evenodd;fill:#00529F;" points="
		0,55.33 32.84,0 66.19,55.33 0,55.33 	"/>
	
		<path style="clip-path:url(#SVGID_00000144332211940988151350000003974691511675853989_);fill-rule:evenodd;clip-rule:evenodd;fill:#FFFFFF;" d="
		M21.41,40.73c0-2.15-0.29-4.33,2.66-4.22c3.02,0.11,2.11,5.39-0.73,6.26c1.06,6.95,12.45,9.43,20.72,7.43
		c-20.5,8.55-33.75-11.11-22.65-24.21C21.41,25.95,16.53,34.98,21.41,40.73"/>
	
		<path style="clip-path:url(#SVGID_00000144332211940988151350000003974691511675853989_);fill:none;stroke:#FFFFFF;stroke-width:0.292;" d="
		M21.41,40.73c0-2.15-0.29-4.33,2.66-4.22c3.02,0.11,2.11,5.39-0.73,6.26c1.06,6.95,12.45,9.43,20.72,7.43
		c-20.5,8.55-33.75-11.11-22.65-24.21C21.41,25.95,16.53,34.98,21.41,40.73z"/>
	
		<path style="clip-path:url(#SVGID_00000144332211940988151350000003974691511675853989_);fill-rule:evenodd;clip-rule:evenodd;fill:#FFFFFF;" d="
		M44.2,40.73c0-2.15,0.33-4.33-2.62-4.22c-3.02,0.11-2.11,5.39,0.73,6.26c-1.09,6.95-12.23,9.5-20.54,7.54
		c22.28,8.38,34.33-13.54,20.97-25.85C42.71,24.46,49.12,34.98,44.2,40.73"/>
	
		<path style="clip-path:url(#SVGID_00000144332211940988151350000003974691511675853989_);fill:none;stroke:#FFFFFF;stroke-width:0.292;" d="
		M44.2,40.73c0-2.15,0.33-4.33-2.62-4.22c-3.02,0.11-2.11,5.39,0.73,6.26c-1.09,6.95-12.23,9.5-20.54,7.54
		c22.28,8.38,34.33-13.54,20.97-25.85C42.71,24.46,49.12,34.98,44.2,40.73z"/>
</g>
<path class="st3" d="M22.06,41.94c-7.61-8.81-1.86-19.99,9.29-21.12c-1.53-1.71-1.6-4.88,1.42-4.88c2.88,0,2.58,3.1,1.2,4.77
	c13.22,0.69,14.78,14.96,9.72,20.94C48.86,20.24,18.53,21,21.37,38.51L22.06,41.94"/>
<path class="st4" d="M72.76,17.11c1.02-0.18,2.35-0.27,3.73-0.27c2.35,0,3.88,0.38,5.04,1.27c1.27,0.95,2.07,2.48,2.07,4.66
	c0,2.35-0.86,3.97-2.02,4.97c-1.29,1.07-3.28,1.58-5.68,1.58c-1.44,0-2.48-0.09-3.15-0.18V17.11 M75.53,27.11
	c0.24,0.05,0.64,0.05,0.97,0.05c2.53,0.02,4.19-1.36,4.19-4.3c0-2.64-1.49-3.9-3.9-3.9c-0.6,0-1.02,0.05-1.26,0.11V27.11z"/>
<path class="st4" d="M87.56,25.61c0.09,1.16,1.22,1.71,2.51,1.71c0.95,0,1.71-0.13,2.46-0.38l0.36,1.88
	c-0.91,0.38-2.02,0.56-3.22,0.56c-3.02,0-4.75-1.75-4.75-4.55c0-2.26,1.42-4.75,4.5-4.75c2.88,0,3.97,2.24,3.97,4.44
	c0,0.47-0.06,0.89-0.09,1.11L87.56,25.61 M90.82,23.72c0-0.66-0.29-1.8-1.55-1.8c-1.18,0-1.66,1.07-1.73,1.8H90.82z"/>
<path class="st4" d="M98.9,26.36c0.73,0.38,1.89,0.76,3.08,0.76c1.27,0,1.95-0.53,1.95-1.35c0-0.75-0.58-1.2-2.06-1.71
	c-2.04-0.73-3.39-1.86-3.39-3.66c0-2.09,1.77-3.68,4.64-3.68c1.4,0,2.4,0.27,3.13,0.62l-0.62,2.22c-0.47-0.24-1.37-0.58-2.55-0.58
	c-1.2,0-1.78,0.56-1.78,1.18c0,0.78,0.67,1.13,2.28,1.75c2.17,0.8,3.17,1.93,3.17,3.68c0,2.06-1.56,3.81-4.93,3.81
	c-1.4,0-2.79-0.38-3.48-0.77L98.9,26.36"/>
<path class="st4" d="M118.89,28.64c-0.86,0.29-2.48,0.69-4.1,0.69c-2.24,0-3.86-0.57-4.99-1.64c-1.11-1.07-1.73-2.68-1.73-4.48
	c0.02-4.08,2.98-6.41,7.01-6.41c1.58,0,2.8,0.31,3.41,0.58l-0.58,2.24c-0.67-0.31-1.49-0.53-2.84-0.53c-2.31,0-4.08,1.31-4.08,3.97
	c0,2.55,1.6,4.02,3.88,4.02c0.62,0,1.13-0.07,1.35-0.16v-2.58h-1.89v-2.17h4.57V28.64"/>
<path class="st4" d="M121.06,17.11c0.89-0.16,2.2-0.27,3.7-0.27c1.82,0,3.09,0.27,3.97,0.98c0.75,0.58,1.15,1.44,1.15,2.57
	c0,1.55-1.11,2.62-2.17,3v0.06c0.86,0.35,1.33,1.15,1.64,2.27c0.38,1.4,0.75,3,0.98,3.48h-2.84c-0.18-0.34-0.49-1.35-0.84-2.86
	c-0.35-1.55-0.87-1.95-2.02-1.97h-0.82v4.82h-2.75V17.11 M123.81,22.37h1.09c1.38,0,2.2-0.69,2.2-1.77c0-1.11-0.76-1.69-2.04-1.69
	c-0.67,0-1.06,0.04-1.26,0.09V22.37z"/>
<rect x="131.2" y="23.5" class="st4" width="4.77" height="1.84"/>
<path class="st4" d="M147.97,28.64c-0.86,0.29-2.48,0.69-4.1,0.69c-2.24,0-3.86-0.57-4.99-1.64c-1.11-1.07-1.73-2.68-1.73-4.48
	c0.02-4.08,2.99-6.41,7.01-6.41c1.58,0,2.8,0.31,3.4,0.58l-0.58,2.24c-0.67-0.31-1.49-0.53-2.84-0.53c-2.31,0-4.08,1.31-4.08,3.97
	c0,2.55,1.6,4.02,3.88,4.02c0.62,0,1.13-0.07,1.35-0.16v-2.58h-1.89v-2.17h4.57V28.64"/>
<path class="st4" d="M150.11,23.23c0-1.31-0.02-2.17-0.07-2.93h2.37l0.11,1.66h0.07c0.46-1.31,1.53-1.86,2.4-1.86
	c0.25,0,0.38,0.02,0.58,0.06v2.6c-0.24-0.04-0.46-0.07-0.77-0.07c-1.02,0-1.71,0.53-1.89,1.4c-0.04,0.18-0.05,0.38-0.05,0.62v4.5
	h-2.77L150.11,23.23"/>
<path class="st4" d="M160.98,29.4c-2.6,0-4.61-1.71-4.61-4.59c0-2.88,1.89-4.71,4.77-4.71c2.71,0,4.53,1.88,4.53,4.57
	c0,3.24-2.31,4.73-4.68,4.73H160.98 M161.04,27.42c1.09,0,1.77-1.07,1.77-2.67c0-1.31-0.51-2.66-1.77-2.66
	c-1.31,0-1.82,1.35-1.82,2.68c0,1.51,0.64,2.66,1.8,2.66H161.04z"/>
<path class="st4" d="M169.58,25.61c0.09,1.16,1.22,1.71,2.51,1.71c0.95,0,1.71-0.13,2.46-0.38l0.37,1.88
	c-0.91,0.38-2.02,0.56-3.22,0.56c-3.02,0-4.75-1.75-4.75-4.55c0-2.26,1.42-4.75,4.5-4.75c2.88,0,3.97,2.24,3.97,4.44
	c0,0.47-0.06,0.89-0.09,1.11L169.58,25.61 M172.83,23.72c0-0.66-0.29-1.8-1.55-1.8c-1.18,0-1.66,1.07-1.73,1.8H172.83z"/>
<path class="st4" d="M177.06,23.28c0-1.16-0.04-2.15-0.07-2.99h2.4l0.13,1.24h0.04c0.66-0.93,1.67-1.44,2.97-1.44
	c1.95,0,3.7,1.69,3.7,4.53c0,3.24-2.06,4.77-4.04,4.77c-1.07,0-1.91-0.44-2.31-1.02h-0.04v4.42h-2.77V23.28 M179.83,25.38
	c0,0.22,0.02,0.4,0.05,0.58c0.18,0.75,0.82,1.31,1.62,1.31c1.2,0,1.91-1,1.91-2.51c0-1.42-0.64-2.5-1.88-2.5
	c-0.78,0-1.48,0.58-1.66,1.4c-0.04,0.15-0.05,0.33-0.05,0.49V25.38z"/>
<line class="st5" x1="72.56" y1="36.51" x2="185.47" y2="36.51"/>
<path class="st4" d="M72.32,49.6c0.33,0.21,0.81,0.37,1.32,0.37c0.76,0,1.2-0.39,1.2-0.98c0-0.53-0.31-0.84-1.08-1.13
	c-0.93-0.34-1.51-0.83-1.51-1.63c0-0.89,0.74-1.56,1.85-1.56c0.58,0,1.01,0.14,1.26,0.28l-0.2,0.6c-0.18-0.11-0.56-0.27-1.08-0.27
	c-0.78,0-1.08,0.47-1.08,0.86c0,0.54,0.35,0.8,1.14,1.1c0.97,0.38,1.45,0.84,1.45,1.68c0,0.88-0.65,1.66-2,1.66
	c-0.55,0-1.15-0.17-1.46-0.37L72.32,49.6"/>
<path class="st4" d="M77.32,45.4v0.99h1.07v0.57h-1.07v2.22c0,0.51,0.14,0.8,0.56,0.8c0.2,0,0.32-0.02,0.43-0.05l0.03,0.57
	c-0.14,0.05-0.37,0.1-0.66,0.1c-0.35,0-0.63-0.12-0.81-0.31c-0.2-0.23-0.29-0.59-0.29-1.08v-2.24h-0.64v-0.57h0.64v-0.76L77.32,45.4
	"/>
<path class="st4" d="M79.46,45.63c-0.28,0-0.47-0.22-0.47-0.48c0-0.26,0.2-0.48,0.48-0.48c0.29,0,0.48,0.21,0.48,0.48
	C79.96,45.41,79.77,45.63,79.46,45.63L79.46,45.63 M79.85,50.5h-0.75v-4.12h0.75V50.5z"/>
<path class="st4" d="M83.9,50.36c-0.2,0.09-0.63,0.24-1.18,0.24c-1.24,0-2.05-0.84-2.05-2.11c0-1.27,0.87-2.19,2.21-2.19
	c0.44,0,0.83,0.11,1.04,0.22l-0.17,0.57c-0.18-0.09-0.46-0.2-0.87-0.2c-0.94,0-1.45,0.71-1.45,1.56c0,0.95,0.61,1.54,1.43,1.54
	c0.42,0,0.71-0.1,0.92-0.2L83.9,50.36"/>
<path class="st4" d="M84.65,44.47h0.75v2.57h0.02c0.12-0.21,0.31-0.41,0.53-0.53c0.22-0.13,0.49-0.21,0.77-0.21
	c0.55,0,1.44,0.34,1.44,1.76v2.45H87.4v-2.36c0-0.67-0.25-1.22-0.95-1.22c-0.49,0-0.86,0.34-1,0.75c-0.04,0.1-0.05,0.21-0.05,0.36
	v2.48h-0.75V44.47"/>
<path class="st4" d="M90.1,45.4v0.99h1.07v0.57H90.1v2.22c0,0.51,0.15,0.8,0.56,0.8c0.2,0,0.32-0.02,0.43-0.05l0.03,0.57
	c-0.14,0.05-0.37,0.1-0.66,0.1c-0.35,0-0.63-0.12-0.81-0.31c-0.21-0.23-0.29-0.59-0.29-1.08v-2.24h-0.64v-0.57h0.64v-0.76L90.1,45.4
	"/>
<path class="st4" d="M92.25,45.63c-0.28,0-0.47-0.22-0.47-0.48c0-0.26,0.2-0.48,0.49-0.48c0.29,0,0.48,0.21,0.48,0.48
	C92.74,45.41,92.55,45.63,92.25,45.63L92.25,45.63 M92.64,50.5h-0.75v-4.12h0.75V50.5z"/>
<path class="st4" d="M93.75,47.5c0-0.43-0.01-0.77-0.03-1.11h0.66l0.04,0.67h0.02c0.2-0.38,0.68-0.76,1.36-0.76
	c0.57,0,1.45,0.34,1.45,1.75v2.46H96.5v-2.37c0-0.66-0.25-1.22-0.95-1.22c-0.49,0-0.87,0.35-1,0.76c-0.03,0.09-0.05,0.23-0.05,0.35
	v2.48h-0.75V47.5"/>
<path class="st4" d="M101.86,49.9c0,0.95-0.19,1.52-0.59,1.89c-0.41,0.37-0.99,0.49-1.5,0.49c-0.49,0-1.04-0.12-1.37-0.34l0.19-0.58
	c0.27,0.18,0.7,0.33,1.21,0.33c0.77,0,1.33-0.4,1.33-1.45V49.8h-0.02c-0.22,0.38-0.67,0.69-1.31,0.69c-1.02,0-1.75-0.87-1.75-2.01
	c0-1.39,0.91-2.18,1.86-2.18c0.71,0,1.1,0.37,1.28,0.71h0.02l0.02-0.61h0.66c-0.02,0.29-0.03,0.62-0.03,1.12V49.9 M101.11,48
	c0-0.12-0.01-0.23-0.04-0.33c-0.14-0.44-0.49-0.8-1.05-0.8c-0.71,0-1.22,0.6-1.22,1.56c0,0.8,0.42,1.48,1.22,1.48
	c0.47,0,0.88-0.29,1.04-0.77c0.04-0.12,0.06-0.26,0.06-0.4V48z"/>
<path class="st4" d="M104.93,46.39l0.81,2.3c0.14,0.38,0.25,0.72,0.33,1.06h0.03c0.09-0.34,0.21-0.68,0.35-1.06l0.8-2.3h0.78
	l-1.61,4.12h-0.72l-1.56-4.12H104.93"/>
<path class="st4" d="M110.18,50.59c-1.11,0-1.97-0.82-1.97-2.12c0-1.38,0.91-2.18,2.04-2.18c1.18,0,1.98,0.86,1.98,2.11
	C112.23,49.93,111.17,50.59,110.18,50.59L110.18,50.59 M110.21,50.03c0.71,0,1.25-0.67,1.25-1.61c0-0.7-0.35-1.57-1.23-1.57
	c-0.88,0-1.26,0.82-1.26,1.6C108.97,49.35,109.48,50.03,110.21,50.03L110.21,50.03z"/>
<path class="st4" d="M114.73,50.59c-1.1,0-1.97-0.82-1.97-2.12c0-1.38,0.91-2.18,2.04-2.18c1.18,0,1.98,0.86,1.98,2.11
	C116.78,49.93,115.71,50.59,114.73,50.59L114.73,50.59 M114.75,50.03c0.71,0,1.25-0.67,1.25-1.61c0-0.7-0.35-1.57-1.23-1.57
	c-0.88,0-1.26,0.82-1.26,1.6C113.51,49.35,114.02,50.03,114.75,50.03L114.75,50.03z"/>
<path class="st4" d="M117.6,47.67c0-0.48-0.01-0.9-0.03-1.28h0.65l0.03,0.81h0.03c0.19-0.55,0.65-0.9,1.15-0.9
	c0.08,0,0.14,0.01,0.2,0.03v0.7c-0.08-0.01-0.16-0.02-0.26-0.02c-0.53,0-0.9,0.4-1,0.95c-0.02,0.11-0.03,0.23-0.03,0.36v2.19h-0.75
	L117.6,47.67"/>
<path class="st4" d="M126.31,50.25c-0.33,0.13-0.99,0.31-1.77,0.31c-0.87,0-1.58-0.22-2.14-0.76c-0.49-0.48-0.8-1.24-0.8-2.13
	c0-1.71,1.18-2.96,3.1-2.96c0.66,0,1.19,0.14,1.44,0.26l-0.19,0.6c-0.31-0.14-0.69-0.25-1.27-0.25c-1.39,0-2.3,0.87-2.3,2.3
	c0,1.45,0.87,2.31,2.21,2.31c0.49,0,0.82-0.07,0.99-0.15v-1.71h-1.16v-0.6h1.89V50.25"/>
<path class="st4" d="M127.79,48.57c0.02,1.01,0.66,1.43,1.4,1.43c0.53,0,0.87-0.09,1.14-0.2l0.14,0.53
	c-0.26,0.12-0.72,0.26-1.38,0.26c-1.26,0-2.02-0.84-2.02-2.07c0-1.25,0.74-2.23,1.94-2.23c1.34,0,1.69,1.18,1.69,1.94
	c0,0.15-0.01,0.27-0.03,0.36L127.79,48.57 M129.98,48.04c0.01-0.47-0.2-1.22-1.03-1.22c-0.77,0-1.09,0.7-1.15,1.22H129.98z"/>
<path class="st4" d="M131.5,44.47h0.75v2.57h0.02c0.12-0.21,0.31-0.41,0.54-0.53c0.22-0.13,0.49-0.21,0.77-0.21
	c0.55,0,1.44,0.34,1.44,1.76v2.45h-0.75v-2.36c0-0.67-0.25-1.22-0.95-1.22c-0.48,0-0.86,0.34-1,0.75c-0.04,0.1-0.05,0.21-0.05,0.36
	v2.48h-0.75V44.47"/>
<path class="st4" d="M138.99,49.52c0,0.36,0.02,0.71,0.06,0.99h-0.67l-0.07-0.52h-0.02c-0.22,0.32-0.67,0.61-1.26,0.61
	c-0.83,0-1.26-0.59-1.26-1.18c0-1,0.88-1.54,2.47-1.53V47.8c0-0.34-0.09-0.96-0.94-0.95c-0.39,0-0.79,0.11-1.08,0.31l-0.17-0.5
	c0.34-0.21,0.84-0.36,1.36-0.36c1.27,0,1.57,0.86,1.57,1.68V49.52 M138.25,48.4c-0.82-0.02-1.74,0.13-1.74,0.93
	c0,0.49,0.32,0.71,0.7,0.71c0.54,0,0.89-0.34,1.01-0.69c0.03-0.08,0.03-0.16,0.03-0.24V48.4z"/>
<path class="st4" d="M140.06,47.5c0-0.43-0.01-0.77-0.03-1.11h0.66l0.04,0.67h0.02c0.2-0.38,0.68-0.76,1.36-0.76
	c0.57,0,1.45,0.34,1.45,1.75v2.46h-0.75v-2.37c0-0.66-0.25-1.22-0.95-1.22c-0.48,0-0.87,0.35-1,0.76c-0.03,0.09-0.05,0.23-0.05,0.35
	v2.48h-0.75V47.5"/>
<path class="st4" d="M148.2,44.47v4.97c0,0.37,0.01,0.78,0.03,1.06h-0.67l-0.03-0.71h-0.02c-0.23,0.46-0.72,0.81-1.39,0.81
	c-0.99,0-1.77-0.84-1.77-2.09c-0.01-1.38,0.85-2.21,1.85-2.21c0.64,0,1.06,0.3,1.24,0.62h0.02v-2.45H148.2 M147.45,48.06
	c0-0.1-0.01-0.22-0.03-0.32c-0.11-0.47-0.52-0.86-1.08-0.86c-0.77,0-1.23,0.68-1.23,1.58c0,0.84,0.42,1.53,1.22,1.53
	c0.5,0,0.96-0.34,1.1-0.89c0.03-0.1,0.03-0.21,0.03-0.32V48.06z"/>
<path class="st4" d="M149.67,45.63c-0.28,0-0.47-0.22-0.47-0.48c0-0.26,0.2-0.48,0.48-0.48c0.29,0,0.48,0.21,0.48,0.48
	C150.16,45.41,149.97,45.63,149.67,45.63L149.67,45.63 M150.06,50.5h-0.75v-4.12h0.75V50.5z"/>
<path class="st4" d="M154.11,50.36c-0.2,0.09-0.63,0.24-1.18,0.24c-1.24,0-2.05-0.84-2.05-2.11c0-1.27,0.87-2.19,2.21-2.19
	c0.44,0,0.83,0.11,1.04,0.22l-0.17,0.57c-0.18-0.09-0.46-0.2-0.87-0.2c-0.94,0-1.45,0.71-1.45,1.56c0,0.95,0.61,1.54,1.43,1.54
	c0.43,0,0.71-0.1,0.92-0.2L154.11,50.36"/>
<path class="st4" d="M157.76,49.52c0,0.36,0.02,0.71,0.06,0.99h-0.67l-0.07-0.52h-0.03c-0.22,0.32-0.67,0.61-1.26,0.61
	c-0.83,0-1.26-0.59-1.26-1.18c0-1,0.88-1.54,2.47-1.53V47.8c0-0.34-0.09-0.96-0.93-0.95c-0.39,0-0.79,0.11-1.08,0.31l-0.17-0.5
	c0.34-0.21,0.84-0.36,1.36-0.36c1.27,0,1.57,0.86,1.57,1.68V49.52 M157.03,48.4c-0.82-0.02-1.74,0.13-1.74,0.93
	c0,0.49,0.32,0.71,0.7,0.71c0.54,0,0.89-0.34,1.01-0.69c0.03-0.08,0.03-0.16,0.03-0.24V48.4z"/>
<path class="st4" d="M158.83,47.73c0-0.53-0.01-0.95-0.03-1.34h0.67l0.04,0.71h0.02c0.3-0.51,0.79-0.8,1.45-0.8
	c1,0,1.75,0.84,1.75,2.09c0,1.48-0.91,2.21-1.87,2.21c-0.55,0-1.02-0.24-1.27-0.65h-0.02v2.24h-0.75V47.73 M159.58,48.83
	c0,0.1,0.01,0.21,0.03,0.31c0.13,0.52,0.59,0.88,1.11,0.88c0.79,0,1.25-0.65,1.25-1.59c0-0.83-0.42-1.53-1.22-1.53
	c-0.51,0-0.99,0.36-1.14,0.92c-0.02,0.1-0.04,0.21-0.04,0.31V48.83z"/>
<path class="st4" d="M164.44,45.4v0.99h1.07v0.57h-1.07v2.22c0,0.51,0.14,0.8,0.56,0.8c0.21,0,0.32-0.02,0.43-0.05l0.03,0.57
	c-0.14,0.05-0.37,0.1-0.66,0.1c-0.35,0-0.63-0.12-0.81-0.31c-0.2-0.23-0.29-0.59-0.29-1.08v-2.24h-0.64v-0.57h0.64v-0.76
	L164.44,45.4"/>
<path class="st4" d="M166.6,48.57c0.02,1.01,0.65,1.43,1.4,1.43c0.54,0,0.87-0.09,1.14-0.2l0.14,0.53
	c-0.26,0.12-0.72,0.26-1.38,0.26c-1.26,0-2.02-0.84-2.02-2.07c0-1.25,0.74-2.23,1.94-2.23c1.34,0,1.69,1.18,1.69,1.94
	c0,0.15-0.01,0.27-0.02,0.36L166.6,48.57 M168.79,48.04c0.01-0.47-0.2-1.22-1.03-1.22c-0.76,0-1.09,0.7-1.15,1.22H168.79z"/>
<path class="st4" d="M170.31,47.5c0-0.43-0.01-0.77-0.03-1.11h0.66l0.04,0.67H171c0.2-0.38,0.68-0.76,1.36-0.76
	c0.57,0,1.45,0.34,1.45,1.75v2.46h-0.75v-2.37c0-0.66-0.25-1.22-0.95-1.22c-0.49,0-0.87,0.35-1,0.76c-0.03,0.09-0.05,0.23-0.05,0.35
	v2.48h-0.75V47.5"/>
<rect x="174.53" y="47.93" class="st4" width="2.1" height="0.54"/>
<path class="st4" d="M179.48,48.57c0.02,1.01,0.65,1.43,1.4,1.43c0.54,0,0.87-0.09,1.14-0.2l0.14,0.53
	c-0.26,0.12-0.72,0.26-1.38,0.26c-1.26,0-2.02-0.84-2.02-2.07c0-1.25,0.74-2.23,1.94-2.23c1.34,0,1.69,1.18,1.69,1.94
	c0,0.15-0.01,0.27-0.02,0.36L179.48,48.57 M181.66,48.04c0.01-0.47-0.2-1.22-1.03-1.22c-0.76,0-1.09,0.7-1.15,1.22H181.66z"/>
<path class="st4" d="M183.18,47.5c0-0.43-0.01-0.77-0.03-1.11h0.66l0.04,0.67h0.02c0.2-0.38,0.68-0.76,1.36-0.76
	c0.57,0,1.45,0.34,1.45,1.75v2.46h-0.75v-2.37c0-0.66-0.25-1.22-0.95-1.22c-0.49,0-0.87,0.35-1,0.76c-0.03,0.09-0.05,0.23-0.05,0.35
	v2.48h-0.75V47.5"/>
<path class="st4" d="M189.47,44.86c0.37-0.08,0.92-0.13,1.42-0.13c0.79,0,1.31,0.15,1.67,0.48c0.28,0.25,0.45,0.64,0.45,1.09
	c0,0.75-0.48,1.25-1.08,1.45v0.03c0.43,0.15,0.7,0.56,0.84,1.16c0.19,0.8,0.32,1.35,0.43,1.57h-0.77c-0.09-0.16-0.22-0.65-0.37-1.37
	c-0.17-0.79-0.48-1.09-1.16-1.11h-0.7v2.48h-0.74V44.86 M190.21,47.46h0.76c0.79,0,1.29-0.43,1.29-1.09c0-0.74-0.54-1.06-1.32-1.06
	c-0.36,0-0.6,0.03-0.73,0.07V47.46z"/>
<path class="st4" d="M194.35,48.57c0.02,1.01,0.65,1.43,1.4,1.43c0.54,0,0.87-0.09,1.14-0.2l0.14,0.53
	c-0.26,0.12-0.72,0.26-1.38,0.26c-1.26,0-2.02-0.84-2.02-2.07c0-1.25,0.74-2.23,1.94-2.23c1.34,0,1.69,1.18,1.69,1.94
	c0,0.15-0.01,0.27-0.03,0.36L194.35,48.57 M196.53,48.04c0.01-0.47-0.2-1.22-1.03-1.22c-0.76,0-1.09,0.7-1.15,1.22H196.53z"/>
<path class="st4" d="M198.32,46.39l0.81,2.3c0.14,0.38,0.25,0.72,0.33,1.06h0.03c0.09-0.34,0.21-0.68,0.35-1.06l0.8-2.3h0.78
	l-1.62,4.12h-0.71l-1.56-4.12H198.32"/>
<path class="st4" d="M204.78,49.52c0,0.36,0.02,0.71,0.06,0.99h-0.67l-0.07-0.52h-0.02c-0.22,0.32-0.67,0.61-1.26,0.61
	c-0.83,0-1.26-0.59-1.26-1.18c0-1,0.88-1.54,2.47-1.53V47.8c0-0.34-0.09-0.96-0.94-0.95c-0.39,0-0.79,0.11-1.08,0.31l-0.17-0.5
	c0.34-0.21,0.84-0.36,1.36-0.36c1.27,0,1.57,0.86,1.57,1.68V49.52 M204.04,48.4c-0.82-0.02-1.74,0.13-1.74,0.93
	c0,0.49,0.32,0.71,0.7,0.71c0.54,0,0.89-0.34,1.01-0.69c0.03-0.08,0.03-0.16,0.03-0.24V48.4z"/>
<rect x="205.85" y="44.47" class="st4" width="0.75" height="6.04"/>
<path class="st4" d="M208.07,45.63c-0.28,0-0.47-0.22-0.47-0.48c0-0.26,0.2-0.48,0.49-0.48c0.29,0,0.48,0.21,0.48,0.48
	C208.56,45.41,208.37,45.63,208.07,45.63L208.07,45.63 M208.46,50.5h-0.75v-4.12h0.75V50.5z"/>
<path class="st4" d="M213.12,44.47v4.97c0,0.37,0.01,0.78,0.03,1.06h-0.67l-0.03-0.71h-0.02c-0.23,0.46-0.72,0.81-1.39,0.81
	c-1,0-1.77-0.84-1.77-2.09c-0.01-1.38,0.85-2.21,1.84-2.21c0.64,0,1.06,0.3,1.24,0.62h0.02v-2.45H213.12 M212.38,48.06
	c0-0.1-0.01-0.22-0.04-0.32c-0.11-0.47-0.52-0.86-1.08-0.86c-0.77,0-1.23,0.68-1.23,1.58c0,0.84,0.42,1.53,1.22,1.53
	c0.5,0,0.96-0.34,1.1-0.89c0.03-0.1,0.04-0.21,0.04-0.32V48.06z"/>
<path class="st4" d="M217.13,49.52c0,0.36,0.02,0.71,0.06,0.99h-0.67l-0.07-0.52h-0.03c-0.22,0.32-0.67,0.61-1.26,0.61
	c-0.83,0-1.26-0.59-1.26-1.18c0-1,0.88-1.54,2.47-1.53V47.8c0-0.34-0.09-0.96-0.93-0.95c-0.39,0-0.79,0.11-1.08,0.31l-0.17-0.5
	c0.34-0.21,0.84-0.36,1.36-0.36c1.27,0,1.57,0.86,1.57,1.68V49.52 M216.4,48.4c-0.82-0.02-1.74,0.13-1.74,0.93
	c0,0.49,0.32,0.71,0.7,0.71c0.54,0,0.89-0.34,1.01-0.69c0.02-0.08,0.03-0.16,0.03-0.24V48.4z"/>
<path class="st4" d="M219.07,45.4v0.99h1.07v0.57h-1.07v2.22c0,0.51,0.14,0.8,0.56,0.8c0.2,0,0.32-0.02,0.43-0.05l0.03,0.57
	c-0.14,0.05-0.37,0.1-0.66,0.1c-0.35,0-0.63-0.12-0.81-0.31c-0.2-0.23-0.29-0.59-0.29-1.08v-2.24h-0.64v-0.57h0.64v-0.76
	L219.07,45.4"/>
<path class="st4" d="M221.21,45.63c-0.28,0-0.47-0.22-0.47-0.48c0-0.26,0.2-0.48,0.48-0.48c0.29,0,0.48,0.21,0.48,0.48
	C221.71,45.41,221.52,45.63,221.21,45.63L221.21,45.63 M221.61,50.5h-0.75v-4.12h0.75V50.5z"/>
<path class="st4" d="M223.14,48.57c0.02,1.01,0.65,1.43,1.4,1.43c0.54,0,0.87-0.09,1.14-0.2l0.14,0.53
	c-0.26,0.12-0.72,0.26-1.38,0.26c-1.26,0-2.02-0.84-2.02-2.07c0-1.25,0.74-2.23,1.94-2.23c1.34,0,1.69,1.18,1.69,1.94
	c0,0.15-0.01,0.27-0.02,0.36L223.14,48.57 M225.33,48.04c0.01-0.47-0.2-1.22-1.03-1.22c-0.76,0-1.09,0.7-1.15,1.22H225.33z"/>
<path class="st4" d="M226.37,50.07l1.86-2.42c0.19-0.23,0.35-0.42,0.54-0.65v-0.02h-2.24v-0.6h3.14v0.47l-1.84,2.4
	c-0.17,0.22-0.34,0.43-0.53,0.64v0.02h2.41v0.6h-3.34V50.07"/>
<path class="st4" d="M231.96,50.59c-1.1,0-1.97-0.82-1.97-2.12c0-1.38,0.91-2.18,2.04-2.18c1.18,0,1.98,0.86,1.98,2.11
	C234.01,49.93,232.95,50.59,231.96,50.59L231.96,50.59 M231.99,50.03c0.71,0,1.25-0.67,1.25-1.61c0-0.7-0.35-1.57-1.23-1.57
	c-0.88,0-1.26,0.82-1.26,1.6C230.75,49.35,231.25,50.03,231.99,50.03L231.99,50.03z"/>
<g>
	<defs>
		<rect id="SVGID_00000075124801957159933010000000838891852311526285_" y="0.01" width="240.96" height="55.32"/>
	</defs>
	<clipPath id="SVGID_00000130640794943105360720000017880297183928729496_">
		<use xlink:href="#SVGID_00000075124801957159933010000000838891852311526285_"  style="overflow:visible;"/>
	</clipPath>
	<path style="clip-path:url(#SVGID_00000130640794943105360720000017880297183928729496_);fill:#231F20;" d="M234.83,47.67
		c0-0.48-0.01-0.9-0.04-1.28h0.66l0.03,0.81h0.02c0.19-0.55,0.65-0.9,1.15-0.9c0.08,0,0.14,0.01,0.2,0.03v0.7
		c-0.08-0.01-0.16-0.02-0.26-0.02c-0.53,0-0.9,0.4-1,0.95c-0.02,0.11-0.02,0.23-0.02,0.36v2.19h-0.75L234.83,47.67"/>
	<path style="clip-path:url(#SVGID_00000130640794943105360720000017880297183928729496_);fill:#231F20;" d="M240.93,49.9
		c0,0.95-0.19,1.52-0.59,1.89c-0.41,0.37-0.98,0.49-1.5,0.49c-0.49,0-1.04-0.12-1.37-0.34l0.19-0.58c0.27,0.18,0.7,0.33,1.21,0.33
		c0.76,0,1.33-0.4,1.33-1.45V49.8h-0.02c-0.22,0.38-0.67,0.69-1.31,0.69c-1.02,0-1.75-0.87-1.75-2.01c0-1.39,0.91-2.18,1.86-2.18
		c0.71,0,1.1,0.37,1.28,0.71h0.02l0.02-0.61h0.66c-0.02,0.29-0.03,0.62-0.03,1.12V49.9 M240.18,48c0-0.12-0.01-0.23-0.04-0.33
		c-0.14-0.44-0.49-0.8-1.04-0.8c-0.71,0-1.22,0.6-1.22,1.56c0,0.8,0.42,1.48,1.21,1.48c0.47,0,0.88-0.29,1.04-0.77
		c0.04-0.12,0.06-0.26,0.06-0.4V48z"/>
</g>
</svg>
