<?xml version="1.0" encoding="utf-8"?>
<!-- Generator: Adobe Illustrator 24.3.0, SVG Export Plug-In . SVG Version: 6.00 Build 0)  -->
<svg version="1.1" id="Laag_1" xmlns="http://www.w3.org/2000/svg" xmlns:xlink="http://www.w3.org/1999/xlink" x="0px" y="0px"
	 viewBox="0 0 604.5 363.7" style="enable-background:new 0 0 604.5 363.7;" xml:space="preserve">
<style type="text/css">
	.st0{fill-rule:evenodd;clip-rule:evenodd;fill:#231F20;}
	.st1{fill:#231F20;}
	.st2{fill-rule:evenodd;clip-rule:evenodd;fill:#063A5A;}
	.st3{clip-path:url(#SVGID_2_);fill-rule:evenodd;clip-rule:evenodd;fill:#231F20;}
	.st4{clip-path:url(#SVGID_2_);fill-rule:evenodd;clip-rule:evenodd;fill:#252224;}
	.st5{clip-path:url(#SVGID_2_);fill-rule:evenodd;clip-rule:evenodd;fill:#272527;}
	.st6{clip-path:url(#SVGID_2_);fill-rule:evenodd;clip-rule:evenodd;fill:#282628;}
	.st7{clip-path:url(#SVGID_2_);fill-rule:evenodd;clip-rule:evenodd;fill:#2B292C;}
	.st8{clip-path:url(#SVGID_2_);fill-rule:evenodd;clip-rule:evenodd;fill:#2D2C2F;}
	.st9{clip-path:url(#SVGID_2_);fill-rule:evenodd;clip-rule:evenodd;fill:#2F2E32;}
	.st10{clip-path:url(#SVGID_2_);fill-rule:evenodd;clip-rule:evenodd;fill:#313135;}
	.st11{clip-path:url(#SVGID_2_);fill-rule:evenodd;clip-rule:evenodd;fill:#323236;}
	.st12{clip-path:url(#SVGID_2_);fill-rule:evenodd;clip-rule:evenodd;fill:#333338;}
	.st13{clip-path:url(#SVGID_2_);fill-rule:evenodd;clip-rule:evenodd;fill:#35353A;}
	.st14{clip-path:url(#SVGID_2_);fill-rule:evenodd;clip-rule:evenodd;fill:#36373C;}
	.st15{clip-path:url(#SVGID_2_);fill-rule:evenodd;clip-rule:evenodd;fill:#38383E;}
	.st16{clip-path:url(#SVGID_2_);fill-rule:evenodd;clip-rule:evenodd;fill:#393A40;}
	.st17{clip-path:url(#SVGID_2_);fill-rule:evenodd;clip-rule:evenodd;fill:#393A41;}
	.st18{clip-path:url(#SVGID_2_);fill-rule:evenodd;clip-rule:evenodd;fill:#3A3B43;}
	.st19{clip-path:url(#SVGID_2_);fill-rule:evenodd;clip-rule:evenodd;fill:#3A3C44;}
	.st20{clip-path:url(#SVGID_2_);fill-rule:evenodd;clip-rule:evenodd;fill:#3B3D46;}
	.st21{clip-path:url(#SVGID_2_);fill-rule:evenodd;clip-rule:evenodd;fill:#3C3E47;}
	.st22{clip-path:url(#SVGID_2_);fill-rule:evenodd;clip-rule:evenodd;fill:#3C3E48;}
	.st23{clip-path:url(#SVGID_2_);fill-rule:evenodd;clip-rule:evenodd;fill:#3C3F49;}
	.st24{clip-path:url(#SVGID_2_);fill-rule:evenodd;clip-rule:evenodd;fill:#3D404A;}
	.st25{clip-path:url(#SVGID_2_);fill-rule:evenodd;clip-rule:evenodd;fill:#3D404B;}
	.st26{clip-path:url(#SVGID_2_);fill-rule:evenodd;clip-rule:evenodd;fill:#3D414C;}
	.st27{clip-path:url(#SVGID_2_);fill-rule:evenodd;clip-rule:evenodd;fill:#3D414D;}
	.st28{clip-path:url(#SVGID_2_);fill-rule:evenodd;clip-rule:evenodd;fill:#3D414E;}
	.st29{clip-path:url(#SVGID_2_);fill-rule:evenodd;clip-rule:evenodd;fill:#3D424F;}
	.st30{clip-path:url(#SVGID_2_);fill-rule:evenodd;clip-rule:evenodd;fill:#3D4250;}
	.st31{clip-path:url(#SVGID_2_);fill-rule:evenodd;clip-rule:evenodd;fill:#3D4251;}
	.st32{clip-path:url(#SVGID_2_);fill-rule:evenodd;clip-rule:evenodd;fill:#3C4251;}
	.st33{clip-path:url(#SVGID_2_);fill-rule:evenodd;clip-rule:evenodd;fill:#3C4252;}
	.st34{clip-path:url(#SVGID_2_);fill-rule:evenodd;clip-rule:evenodd;fill:#3B4252;}
	.st35{clip-path:url(#SVGID_2_);fill-rule:evenodd;clip-rule:evenodd;fill:#3B4253;}
	.st36{clip-path:url(#SVGID_2_);fill-rule:evenodd;clip-rule:evenodd;fill:#3C4253;}
	.st37{clip-path:url(#SVGID_2_);fill-rule:evenodd;clip-rule:evenodd;fill:#3A4253;}
	.st38{clip-path:url(#SVGID_2_);fill-rule:evenodd;clip-rule:evenodd;fill:#3B4254;}
	.st39{clip-path:url(#SVGID_2_);fill-rule:evenodd;clip-rule:evenodd;fill:#3A4153;}
	.st40{clip-path:url(#SVGID_2_);fill-rule:evenodd;clip-rule:evenodd;fill:#3A4254;}
	.st41{clip-path:url(#SVGID_2_);fill-rule:evenodd;clip-rule:evenodd;fill:#394154;}
	.st42{clip-path:url(#SVGID_2_);fill-rule:evenodd;clip-rule:evenodd;fill:#3A4154;}
	.st43{clip-path:url(#SVGID_2_);fill-rule:evenodd;clip-rule:evenodd;fill:#394254;}
	.st44{clip-path:url(#SVGID_2_);fill-rule:evenodd;clip-rule:evenodd;fill:#394255;}
	.st45{clip-path:url(#SVGID_2_);fill-rule:evenodd;clip-rule:evenodd;fill:#384154;}
	.st46{clip-path:url(#SVGID_2_);fill-rule:evenodd;clip-rule:evenodd;fill:#384255;}
	.st47{clip-path:url(#SVGID_2_);fill-rule:evenodd;clip-rule:evenodd;fill:#384155;}
	.st48{clip-path:url(#SVGID_2_);fill-rule:evenodd;clip-rule:evenodd;fill:#374155;}
	.st49{clip-path:url(#SVGID_2_);fill-rule:evenodd;clip-rule:evenodd;fill:#364156;}
	.st50{clip-path:url(#SVGID_2_);fill-rule:evenodd;clip-rule:evenodd;fill:#364155;}
	.st51{clip-path:url(#SVGID_2_);fill-rule:evenodd;clip-rule:evenodd;fill:#354156;}
	.st52{clip-path:url(#SVGID_2_);fill-rule:evenodd;clip-rule:evenodd;fill:#354056;}
	.st53{clip-path:url(#SVGID_2_);fill-rule:evenodd;clip-rule:evenodd;fill:#344056;}
	.st54{clip-path:url(#SVGID_2_);fill-rule:evenodd;clip-rule:evenodd;fill:#344057;}
	.st55{clip-path:url(#SVGID_2_);fill-rule:evenodd;clip-rule:evenodd;fill:#334057;}
	.st56{clip-path:url(#SVGID_2_);fill-rule:evenodd;clip-rule:evenodd;fill:#334056;}
	.st57{clip-path:url(#SVGID_2_);fill-rule:evenodd;clip-rule:evenodd;fill:#324057;}
	.st58{clip-path:url(#SVGID_2_);fill-rule:evenodd;clip-rule:evenodd;fill:#314057;}
	.st59{clip-path:url(#SVGID_2_);fill-rule:evenodd;clip-rule:evenodd;fill:#304057;}
	.st60{clip-path:url(#SVGID_2_);fill-rule:evenodd;clip-rule:evenodd;fill:#304058;}
	.st61{clip-path:url(#SVGID_2_);fill-rule:evenodd;clip-rule:evenodd;fill:#2F3F57;}
	.st62{clip-path:url(#SVGID_2_);fill-rule:evenodd;clip-rule:evenodd;fill:#2F4058;}
	.st63{clip-path:url(#SVGID_2_);fill-rule:evenodd;clip-rule:evenodd;fill:#2E3F57;}
	.st64{clip-path:url(#SVGID_2_);fill-rule:evenodd;clip-rule:evenodd;fill:#2E3F58;}
	.st65{clip-path:url(#SVGID_2_);fill-rule:evenodd;clip-rule:evenodd;fill:#2E4058;}
	.st66{clip-path:url(#SVGID_2_);fill-rule:evenodd;clip-rule:evenodd;fill:#2D3F58;}
	.st67{clip-path:url(#SVGID_2_);fill-rule:evenodd;clip-rule:evenodd;fill:#2C3F58;}
	.st68{clip-path:url(#SVGID_2_);fill-rule:evenodd;clip-rule:evenodd;fill:#2B3F58;}
	.st69{clip-path:url(#SVGID_2_);fill-rule:evenodd;clip-rule:evenodd;fill:#2B3E58;}
	.st70{clip-path:url(#SVGID_2_);fill-rule:evenodd;clip-rule:evenodd;fill:#2A3F58;}
	.st71{clip-path:url(#SVGID_2_);fill-rule:evenodd;clip-rule:evenodd;fill:#2A3E58;}
	.st72{clip-path:url(#SVGID_2_);fill-rule:evenodd;clip-rule:evenodd;fill:#293E58;}
	.st73{clip-path:url(#SVGID_2_);fill-rule:evenodd;clip-rule:evenodd;fill:#2A3F59;}
	.st74{clip-path:url(#SVGID_2_);fill-rule:evenodd;clip-rule:evenodd;fill:#293E59;}
	.st75{clip-path:url(#SVGID_2_);fill-rule:evenodd;clip-rule:evenodd;fill:#283E58;}
	.st76{clip-path:url(#SVGID_2_);fill-rule:evenodd;clip-rule:evenodd;fill:#283E59;}
	.st77{clip-path:url(#SVGID_2_);fill-rule:evenodd;clip-rule:evenodd;fill:#273E59;}
	.st78{clip-path:url(#SVGID_2_);fill-rule:evenodd;clip-rule:evenodd;fill:#263E59;}
	.st79{clip-path:url(#SVGID_2_);fill-rule:evenodd;clip-rule:evenodd;fill:#253E59;}
	.st80{clip-path:url(#SVGID_2_);fill-rule:evenodd;clip-rule:evenodd;fill:#243E59;}
	.st81{clip-path:url(#SVGID_2_);fill-rule:evenodd;clip-rule:evenodd;fill:#253D59;}
	.st82{clip-path:url(#SVGID_2_);fill-rule:evenodd;clip-rule:evenodd;fill:#243D59;}
	.st83{clip-path:url(#SVGID_2_);fill-rule:evenodd;clip-rule:evenodd;fill:#233D59;}
	.st84{clip-path:url(#SVGID_2_);fill-rule:evenodd;clip-rule:evenodd;fill:#223D59;}
	.st85{clip-path:url(#SVGID_2_);fill-rule:evenodd;clip-rule:evenodd;fill:#213D59;}
	.st86{clip-path:url(#SVGID_2_);fill-rule:evenodd;clip-rule:evenodd;fill:#213D5A;}
	.st87{clip-path:url(#SVGID_2_);fill-rule:evenodd;clip-rule:evenodd;fill:#203D59;}
	.st88{clip-path:url(#SVGID_2_);fill-rule:evenodd;clip-rule:evenodd;fill:#1F3D5A;}
	.st89{clip-path:url(#SVGID_2_);fill-rule:evenodd;clip-rule:evenodd;fill:#1F3D59;}
	.st90{clip-path:url(#SVGID_2_);fill-rule:evenodd;clip-rule:evenodd;fill:#1E3D59;}
	.st91{clip-path:url(#SVGID_2_);fill-rule:evenodd;clip-rule:evenodd;fill:#1E3D5A;}
	.st92{clip-path:url(#SVGID_2_);fill-rule:evenodd;clip-rule:evenodd;fill:#1E3C5A;}
	.st93{clip-path:url(#SVGID_2_);fill-rule:evenodd;clip-rule:evenodd;fill:#1D3D5A;}
	.st94{clip-path:url(#SVGID_2_);fill-rule:evenodd;clip-rule:evenodd;fill:#1D3C5A;}
	.st95{clip-path:url(#SVGID_2_);fill-rule:evenodd;clip-rule:evenodd;fill:#1C3C5A;}
	.st96{clip-path:url(#SVGID_2_);fill-rule:evenodd;clip-rule:evenodd;fill:#1B3C5A;}
	.st97{clip-path:url(#SVGID_2_);fill-rule:evenodd;clip-rule:evenodd;fill:#1A3C5A;}
	.st98{clip-path:url(#SVGID_2_);fill-rule:evenodd;clip-rule:evenodd;fill:#193C5A;}
	.st99{clip-path:url(#SVGID_2_);fill-rule:evenodd;clip-rule:evenodd;fill:#183C5A;}
	.st100{clip-path:url(#SVGID_2_);fill-rule:evenodd;clip-rule:evenodd;fill:#163C5A;}
	.st101{clip-path:url(#SVGID_2_);fill-rule:evenodd;clip-rule:evenodd;fill:#173B5A;}
	.st102{clip-path:url(#SVGID_2_);fill-rule:evenodd;clip-rule:evenodd;fill:#163B5A;}
	.st103{clip-path:url(#SVGID_2_);fill-rule:evenodd;clip-rule:evenodd;fill:#153B5A;}
	.st104{clip-path:url(#SVGID_2_);fill-rule:evenodd;clip-rule:evenodd;fill:#143B5A;}
	.st105{clip-path:url(#SVGID_2_);fill-rule:evenodd;clip-rule:evenodd;fill:#133B5A;}
	.st106{clip-path:url(#SVGID_2_);fill-rule:evenodd;clip-rule:evenodd;fill:#113B5A;}
	.st107{clip-path:url(#SVGID_2_);fill-rule:evenodd;clip-rule:evenodd;fill:#123B5A;}
	.st108{clip-path:url(#SVGID_2_);fill-rule:evenodd;clip-rule:evenodd;fill:#103B5A;}
	.st109{clip-path:url(#SVGID_2_);fill-rule:evenodd;clip-rule:evenodd;fill:#0F3B5A;}
	.st110{clip-path:url(#SVGID_2_);fill-rule:evenodd;clip-rule:evenodd;fill:#0D3B5A;}
	.st111{clip-path:url(#SVGID_2_);fill-rule:evenodd;clip-rule:evenodd;fill:#0E3A5A;}
	.st112{clip-path:url(#SVGID_2_);fill-rule:evenodd;clip-rule:evenodd;fill:#0C3B5A;}
	.st113{clip-path:url(#SVGID_2_);fill-rule:evenodd;clip-rule:evenodd;fill:#0D3A5A;}
	.st114{clip-path:url(#SVGID_2_);fill-rule:evenodd;clip-rule:evenodd;fill:#0B3A5B;}
	.st115{clip-path:url(#SVGID_2_);fill-rule:evenodd;clip-rule:evenodd;fill:#0C3A5A;}
	.st116{clip-path:url(#SVGID_2_);fill-rule:evenodd;clip-rule:evenodd;fill:#0A3A5A;}
	.st117{clip-path:url(#SVGID_2_);fill-rule:evenodd;clip-rule:evenodd;fill:#083A5A;}
	.st118{clip-path:url(#SVGID_2_);fill-rule:evenodd;clip-rule:evenodd;fill:#093A5A;}
	.st119{clip-path:url(#SVGID_2_);fill-rule:evenodd;clip-rule:evenodd;fill:#053A5A;}
	.st120{clip-path:url(#SVGID_2_);fill-rule:evenodd;clip-rule:evenodd;fill:#063A5B;}
	.st121{clip-path:url(#SVGID_2_);fill-rule:evenodd;clip-rule:evenodd;fill:#043A5A;}
	.st122{clip-path:url(#SVGID_2_);fill-rule:evenodd;clip-rule:evenodd;fill:#063A5A;}
</style>
<path class="st0" d="M406.9,123.6c0,1.6,0.4,5.2,0.7,6.5c1,3.6,0.6,5.2,2.4,8.7c0.5,0.9,0.6,1.6,1,2.6c0.6,1.4,2.7,4.1,3.7,5.5
	l2.8,2.7c0.8,0.5,1.3,1,2.2,1.4c2.6,1.4,1.5,1.4,5,2.4c0.5,0.2,0.8,0.3,1.4,0.6c2,1.1,1.5,0.7,4.4,1.2c4,0.7,8.6,0.5,12.5-0.3
	c1-0.2,2.1-1,4.2-1.8c1.2-0.4,0.5-0.2,1.4-0.8c0.9-0.7,1.8-0.8,2.7-1.7l3.4-3.3c1.3-1.6,1.5-1.2,3.3-3.9c0.3-0.5,0.4-1,0.7-1.5
	c0.5-0.9,1.1-1.3,1.6-2.5c1-2.7,2.8-5.9,3.6-8.6c0.3-1.1,0.4-2.2,0.7-3.4c0.3-1.2,0.5-2.2,0.8-3.3c1-5.2,0.6-10,0.6-15.7
	c0-1.8-1.9-11.2-2.5-12.6l-3.6-7.9c-0.3-0.5-0.4-0.7-0.7-1.2l-2.8-4.2c0,0-0.1-0.1-0.1-0.1c0,0-0.1-0.1-0.1-0.1l-2.9-2.8
	c-1.1-1.1-1-0.8-2.2-1.6l-5-2.7c-0.4-0.1-1.1-0.3-1.5-0.4c-1.3-0.3-5.3-0.4-7-0.4c-1.8,0-2.6,0.4-4.3,0.5c-1.7,0.1-2.6,0.6-3.9,1.1
	c-0.7,0.3-1,0.5-1.7,0.7c-2.3,0.8-5.6,3.5-7.1,5.4l-3.5,3.9c-0.5,0.7-0.5,1.2-0.8,1.8c-0.4,0.6-0.7,0.7-1.1,1.3
	c-0.4,0.6-0.5,1.2-0.8,1.8c-0.3,0.5-0.7,0.9-0.9,1.5l-2.3,5.1l-2.1,8C407,112.6,406.9,115.7,406.9,123.6 M412.2,120
	c0-2.5,0.4-5.2,0.7-7.5c0.2-1.2,0.3-2.6,0.5-3.6l1.6-6.3c0.3-1.2,0.8-1.7,1.2-2.8c0.5-1.3,0.4-1.7,1.2-2.9c0.5-0.9,0.9-1.8,1.3-2.5
	l7.5-8.6c4-3.1,3.5-2.7,7.7-4.5c3.5-1.5,7.2-0.9,10.6,0.6c0.9,0.4,1.5,0.4,2.1,1c1.5,1.3,2.9,1.6,5,3.8l2.6,3.2c0.4,0.8,0.2,1,1.2,2
	c1.3,1.4,0.6,1.3,1.9,3.9c1.1,2.2,2.5,9.3,2.5,12.2c0,11.1,0.6,10.9-2.1,21.7c-0.9,3.6-0.9,2.5-1.7,5.3c-0.4,1.4-0.7,1.1-1.3,2.3
	c-1.2,2.3-1.8,3.5-3.4,5.5l-3.9,3.8c-3.5,2.7-4.2,2.3-6.6,3.2c-4,1.5-9,1.4-13-0.1c-3.1-1.2-0.7,0.3-4.2-1.8c-3-1.9-4.1-2.8-6.2-5.8
	c-0.4-0.6-0.8-1.5-1-2.1c-0.1-0.3-0.2-0.7-0.4-1c-1.6-3-0.8-1.8-2.1-5.4C412.6,129.7,412.2,124.1,412.2,120z M467.6,151.9
	c0,1.8,0.7,1.8,1.5,2.8c2.4,2.8,4.6,2.3,5.1,0c0.6-2.8,0.3-7.4,1.5-11.9c0.1-0.5,0.4-1.2,0.5-1.7c0.9-3.2,3.6-4,6.8-4.5
	c2.4-0.3,5.7-1.2,7.7-1.4c1.4-0.1,3-0.2,4.3-0.3c3-0.3,5-1,8.2-1c1,0,1.4-0.1,2-0.2c0.8-0.1,1.5,0,2.3-0.1c3.9-0.3,5.2-0.9,6.1,1.9
	l-0.1,9.9c0,4.4,2.5,5.8,5.7,4.5c0.6-0.2,0.7-0.4,1.2-0.8c1.2-0.9,1.1-1.8,0.4-3.3c-0.6-1.3-2.2-8.2-2.2-9.5c0-4.3,5.3,0.3,5.3-5
	c0-3.4-4.4-0.9-5.5-4.4l-1.7-12.9c-0.1-1.9-0.1-2.9-0.4-4.7c-0.6-3.8-1.3-9.1-2.1-12.5c-0.5-2.2-1.3-5.8-2.1-7.8l-3.7-8.5
	c-1-1.5-2-3.2-3.5-4.2c-4.3-2.7-5.3-1-7.2,0c-1.9,0.9-0.7,0.2-1.8,1.6c-0.5,0.6-0.3,0.2-0.8,0.8l-2.7,4.2c-0.5,0.9-0.6,0.7-1.4,2.2
	c-0.8,1.6-1.6,2.9-2.4,4.6c-0.9,1.9-0.6,0.9-1.6,3.5c-0.5,1.3-0.9,0.9-1.6,3.4c-0.3,1.1-0.4,1.6-1,2.6c-1.7,3-0.7,1.8-2.2,4.8
	c-0.4,0.8-0.5,1.6-0.8,2.6l-2.9,7.4c-0.3,0.8-0.5,1.9-0.7,2.6c-0.4,1.2-0.7,1.3-1.1,2.5c-0.6,1.8-1.1,3.5-1.7,5.2l-3,10.9
	c-1.6,5.1-1.5,8-2.6,11.4l-0.6,2.7C468.4,150.4,467.6,150.4,467.6,151.9z M500.8,83.7c1.5-0.3,2.3,0.9,2.9,1.9
	c0.4,0.6,0.8,1,1.1,1.5c0.2,0.5,0.4,1.2,0.6,1.8c0.5,1.6,1.2,1.9,1.5,3.5c0.2,0.8,0.2,1.4,0.4,2.2c0.2,0.9,1.2,2.8,1.6,5.9
	c0.5,3.4,1.1,5.5,1.4,8.6l1.3,9c0.2,1.2,1.3,8,0.9,8.8c-0.6,1.5-4.7,1-8.6,1.5l-9.5,0.6c-2.1,0-6.8,0.9-8.9,1.4
	c-0.7,0.2-3.8,0.6-4.5,0.5c-2.9-0.3-1.6-3.6-1.1-4.9c0.3-0.8,0.2-1.1,0.5-1.9c0.4-1.2,0.9-1.6,1.4-3.6c0.8-3.3,0.3-1.5,1.4-3.7
	c0.5-1.1,0.7-2.7,1.2-3.9c0.2-0.6,0.6-1.1,0.8-1.8c0.2-0.7,0.3-1.2,0.5-1.9c0.4-1.5,1.1-2.2,1.6-3.7c0.2-0.8,0.2-1.2,0.6-2l2.3-5.2
	c0.5-0.9,0.5-0.6,0.8-1.8c0.2-0.7,0.4-1.3,0.6-1.8l2.8-4.9c0.3-0.7,0.5-0.9,0.9-1.5C496.9,86.3,498,84.3,500.8,83.7z M293.4,97.6
	c0,6.1,0,3.7,0.8,8.6c0.3,1.8,1.5,3.4,2.1,5.1c0.5,1.5,3,4.7,4.2,5.7c0.6,0.5,0.7,0.5,1.3,1.1c1.2,1.3,2.5,2.5,3.9,3.6
	c0.6,0.4,0.8,0.5,1.4,1l11.3,8.3c0.9,0.5,0.6,0,1.5,0.9c1.2,1.1,3,2.1,4.3,3.1c0.5,0.4,0.7,0.7,1.3,1.1c0.7,0.6,3.3,3,3.7,3.8
	c1,1.8,2.8,3.8,0.6,6.7c-3.5,4.7-10.3,4-15.6,4c-4.4,0-8.3-0.9-11.6-3.3c-3.5-2.6-4.9-5.8-9.3-5.8c-2.3,0-2.4,1.3-2.4,3.1
	c0,1.2,1.6,3.2,2.5,4c3.4,2.7,2.7,1.6,5.6,3.1c0.7,0.3,0.7,0.5,1.3,0.8c1,0.5,2.3,0.6,3.5,0.8c3.7,0.7,3.9,1.9,11.1,1.9
	c3.5,0,6.9,0.1,10.3-1c1.1-0.4,1.5-0.7,2.8-1c1.1-0.2,2.1-0.5,3-1.1c3.6-2.5,4-1.8,6.2-5.8c0.8-1.4,1.1-4.4,0.2-6
	c-0.7-1.3-0.9-2.7-2-3.8l-2-2.1c-1.6-1.2-1.5-1.8-4.1-3.5l-4.1-3.1c-0.5-0.4-1-0.6-1.6-1l-8.6-6.2c-0.5-0.4-0.9-0.6-1.4-1
	c-0.7-0.5-0.7-0.8-1.4-1.3c-2.6-1.6-3.6-2.2-5.5-4.6c-0.8-0.9-1.7-1.5-2.3-2.5c-0.3-0.5-0.5-1-0.8-1.6c-2.1-3-2.2-2.1-3.3-6.8
	l-0.5-4.6c0-6.4,1.4-7.2,3.6-11.3c0.9-1.8,3.6-4.6,5.4-5.4c1.4-0.6,0.9-1,2.9-1.4c4.4-0.9,3.6-1.3,8.2,0.1c0.7,0.2,1.3,0.8,1.7,1.2
	c1.4,1.3,1.7,1.3,2.9,3.1c1.8,2.7,3.4,7.5,3.9,10.7c0.4,2.6,0.8,8.3,0.1,10.8c-1,3.2-2.1,4.8,0.1,7.5c2.9,3.7,6.5,0,6.5-5.8
	c0-4.5-1.4-8-1.7-13c-0.2-3.3-1.4-7.5-3.1-10.3l-5.4-7.1c-1-1-3.2-2.6-4.6-3.1c-1.9-0.6-3.8-1.3-5.9-1.3c-3,0-7.2,1.1-9,2.3
	c-0.5,0.4-1,0.8-1.5,1.1c-1.1,0.8-2.2,1.6-3.1,2.7c-0.5,0.6-0.7,1.1-1.2,1.7l-2.2,3.3c-0.4,0.7-0.7,1.1-1.1,1.8
	c-0.3,0.8-0.4,1.3-0.8,2.1c-0.9,1.8-1,2.4-1.3,4.4C293.8,94.3,293.4,95.5,293.4,97.6z M367.8,87.8c0,2.5-0.1,8.3-0.4,10.4
	c-0.4,3,0,6-0.4,9l-1.4,17.6c0,6.3,0,12.8,1.5,18.9c0.5,2,1.9,4.5,3.4,6c2.6,2.6,0.9,0.8,2.6,2.2c3,2.4,12.5,2.3,16.2,1.6
	c1.1-0.2,1.9-0.1,3-0.1c1.6-0.1,3.7-0.4,5.2-0.8l4.8-1.2c6.2-1.3,2.8-6.1-0.6-6.1c-1.9,0-4.1,0.3-5.9,0.8l-3.6,1
	c-1,0.2-1.5,0.3-2.3,0.6c-4.6,1.7-10.4,2.6-14.2-1.1c-3.3-3.2-3.2-6.1-3.9-10.2c-0.4-2.5-0.2-8.3,0.1-10.6c0.1-1,0-1.9,0.1-2.8
	l0.8-7.8c0.2-1.5,0.2-3.8,0.3-5.2c0.2-1.8,0.1-3.6,0.3-5.4l1.1-18.8c0-2.3,0.7-3.4-0.4-7.7c-0.3-1.2-2-3.1-2.7-3.1
	C365.3,74.8,367.8,78.7,367.8,87.8z M344.8,134.4c0,4.5,0.3,7.3,0.7,11.8c0.1,1.3,1.1,3.6,1.6,4.6c2,4.1,7.8,2.6,7.1,0.4
	c-0.2-0.5-0.6-1.1-0.9-1.8c-0.3-0.9-0.3-1.4-0.6-2.3c-0.9-2.7-1.4-6.1-1.4-9.9l0.9-33.7c0.5-3.7,0.8-11.4,1.3-15.3
	c0.2-1.7,0.5-3.4,0.7-4.9c0.2-1.3,0.2-1.3,0.5-2.1c0.2-0.7,1.7-3.2-0.4-4.5c-3.1-2-6.7-0.5-8.3,2.4c-1,1.8-0.6,5-0.6,7.5
	c0,5.4,0,10.7,0,16.1c0,1.6-0.2,2.2-0.3,3.6l0,12.3c0,1.6-0.2,2.3-0.2,3.6L344.8,134.4z M565.6,139.9c-2.6,0-4.3-2.6-5.3-4.8
	c-0.2-0.4-0.3-0.8-0.4-1.2c-0.3-0.8-0.2-0.4-0.6-1c-1-1.4-0.7-2.9-1.7-4.5c-1-1.7-2.3-7.3-3.1-9.7c-0.9-2.5-1.7-6.8-2.6-8.5
	c-0.6-1.1-0.5-2.7-0.8-4l-1.5-5c-0.2-0.9-0.2-1.8-0.4-2.7c-0.5-1.8-1-3.1-1.4-5.1c-0.3-1.9-0.3-3.7-0.7-5.6
	c-0.3-1.6-0.8-3.7-0.9-5.6c-0.2-3.9,0.2-7.7-4.4-8.4c-1.2-0.2-4.7,0.3-5.8,0.6c-1.5,0.3-1.1,0.2-2,1.1c-2.5,2.5-0.5,3.2-0.5,6.2
	c0,6.6-0.4,12.5-0.5,19c0,1.4-0.4,3-0.5,4.3c-0.1,1.5,0,3.5,0,5l-0.2,7c0,1.2-0.2,1.2-0.3,2.4c0,1.6,0.1,3.2,0,4.8l-0.2,4.8
	c0,1.8,0,3.1-0.2,4.6c-0.2,1.8,0.1,3.3,0.2,4.8c0.1,1.9,0,2.7,0.3,4.5c0.4,2.7,0.2,3.5,1.1,6.3c1.6,4.9,7,4.3,8.6,1.2
	c-0.1-0.1-0.2-0.5-0.3-0.6c-1.3-2.1-2.2-1-2.7-5.2c-0.3-2.3,0-6.3,0-8.8c0-1.5-0.3-2.3-0.3-4.1c0-1.4,0.1-3.1,0-4.6
	c-0.2-2.9-0.5-5.3-0.5-8.4l0-7.9c0-1.5,0.3-1.9,0.3-3.3c0-3.3,0.6-14.5,1-17.2c0.2-1.2,0.5-1.9,1.9-2c0.2,0.8,0.4,1.2,0.6,2
	c0.2,0.8,0.3,1.4,0.5,2.2l1.5,6.4c0.4,2.5,1.3,4.6,1.5,6.5c0.3,3.4,1.5,5.2,2,8.6c0.2,1.5,0.5,2.9,1,4.3c0.5,1.4,0.7,2.8,1.1,4.2
	l2.4,8.1c0.5,1.2,0.7,2.8,1.2,4c0.2,0.6,0.7,1.1,0.9,1.7c0.5,1.2,0.6,2.9,1.5,3.8c0.8,0.9,0.5,0.5,1,1.6c0.7,1.7,2.5,3.1,3.7,4.3
	c0.7,0.7,0.3,0.6,1.3,1.3c2.9,1.9,4.7,1.8,7.4,0.3c2.5-1.4,5.6-6.5,6.6-9.3c0.4-1,0.4-0.8,0.8-1.6l4.3-11.7c0.2-0.9,0.3-1.3,0.5-1.9
	l2.1-7c0.7-1.7,0.9-3.8,1.4-5.6c0.2-0.7,0.4-1,0.7-1.7c0.7-2.3,0.3-2.4,1.9-7.2c0.5-1.4,0.6-3.3,1.5-3.3c1.3,0,0.5,2.6,0.5,3.8
	c0,3.4-0.3,6.2-0.7,9.4c-0.6,4.5-0.7,8.9-0.9,13.7c-0.2,3.2-0.7,6-0.7,9.4c0,3.9,0.4,7.6,0.7,11.3c0.1,1.3,2.1,6.8,2.7,7.4l1.7,1.7
	c1,0.6,5,1.6,5-0.4c0-1.9-1.5-2.1-2.1-4.1c-0.3-0.8-0.3-1.5-0.6-2.3c-0.2-0.8-0.5-1.3-0.5-2.4c0-10.8-0.2-22,0.7-32.7
	c0.1-1.1-0.1-2.2,0-3.3c0.1-0.9,0.4-2.1,0.4-3.2c0.2-3.3,0.1-6.4,0.5-9.8c0.4-2.9,1.2-6.5,1.1-9.4c0-2.2-0.1-4.8,0.4-6.6
	c0.9-3,4.8-3.6,1.3-6.4c-1.9-1.5-4.7-1-6.8-0.2c-3.4,1.3-3.7,3.9-4.6,7.2c-0.2,0.9-0.5,1.2-0.8,2.1l-2.6,9.2
	c-0.1,0.7-0.3,1.6-0.5,2.4c-0.6,2.4-0.9,5.1-1.5,7.6L580,107c-0.3,1.7-0.5,3.2-1.1,4.7c-0.7,1.7-0.7,3-1.2,4.8
	c-0.5,1.9-1.1,2.3-1.5,4.3c-0.2,1-0.3,1.5-0.6,2.3l-1.5,4.5c-0.3,0.8-0.8,1.2-1.1,1.8c-0.3,0.7-0.2,1.4-0.7,2.2l-2.8,4.7
	c-1.2,1.7-0.2,0.7-2.1,2.5C567,139.3,566.6,139.9,565.6,139.9z"/>
<path class="st1" d="M8.5,181.8c-1.1,0.3-2.1-0.4-2.4-1.5c-0.3-1.1,0.4-2.1,1.5-2.4l259.6-60.7c1.1-0.3,2.1,0.4,2.4,1.5
	c0.3,1.1-0.4,2.1-1.5,2.4L8.5,181.8z M25,9.2c-1.1-0.2-1.8-1.3-1.5-2.4c0.2-1.1,1.3-1.8,2.4-1.5L258,55.7c1.1,0.2,1.8,1.3,1.5,2.4
	c-0.2,1.1-1.3,1.8-2.4,1.5L25,9.2z M43.1,272.5c-1,0.5-2.2,0.2-2.7-0.8c-0.5-1-0.2-2.2,0.8-2.7l235.4-125.4c1-0.5,2.2-0.2,2.7,0.8
	c0.5,1,0.2,2.2-0.8,2.7L43.1,272.5z M64.7,318.8c-0.9,0.6-2.1,0.4-2.8-0.5c-0.6-0.9-0.4-2.1,0.5-2.8l221.2-158.4
	c0.9-0.6,2.1-0.4,2.8,0.5c0.6,0.9,0.4,2.1-0.5,2.8L64.7,318.8z M99,355.6c-0.8,0.8-2.1,0.7-2.8-0.1c-0.8-0.8-0.7-2.1,0.1-2.8
	l197-184.9c0.8-0.8,2.1-0.7,2.8,0.1c0.8,0.8,0.7,2.1-0.1,2.8L99,355.6z M47.4,51.9H36v71.4h11.4V51.9z M34,47.9h15.4
	c1.1,0,2,0.9,2,2v75.4c0,1.1-0.9,2-2,2H34c-1.1,0-2-0.9-2-2V49.9C32,48.8,32.9,47.9,34,47.9z M89.1,56.3h-9.6v62.5h9.6V56.3z
	 M77.5,52.3h13.6c1.1,0,2,0.9,2,2v66.5c0,1.1-0.9,2-2,2H77.5c-1.1,0-2-0.9-2-2V54.3C75.5,53.2,76.4,52.3,77.5,52.3z M125.6,60.8
	h-7.8v53.6h7.8V60.8z M115.9,56.8h11.8c1.1,0,2,0.9,2,2v57.6c0,1.1-0.9,2-2,2h-11.8c-1.1,0-2-0.9-2-2V58.8
	C113.9,57.7,114.8,56.8,115.9,56.8z M157.8,62.6h-5.9v49.9h5.9V62.6z M149.8,58.6h9.9c1.1,0,2,0.9,2,2v53.9c0,1.1-0.9,2-2,2h-9.9
	c-1.1,0-2-0.9-2-2V60.6C147.8,59.5,148.7,58.6,149.8,58.6z M190,65h-5.9v45.2h5.9V65z M182.1,61h9.9c1.1,0,2,0.9,2,2v49.2
	c0,1.1-0.9,2-2,2h-9.9c-1.1,0-2-0.9-2-2V63C180.1,61.9,181,61,182.1,61z M215.3,69.5h-5v36.2h5V69.5z M208.3,65.5h9c1.1,0,2,0.9,2,2
	v40.2c0,1.1-0.9,2-2,2h-9c-1.1,0-2-0.9-2-2V67.5C206.3,66.4,207.2,65.5,208.3,65.5z M238.8,71.8h-3.1v31.5h3.1V71.8z M233.7,67.8
	h7.1c1.1,0,2,0.9,2,2v35.5c0,1.1-0.9,2-2,2h-7.1c-1.1,0-2-0.9-2-2V69.8C231.7,68.7,232.6,67.8,233.7,67.8z M26.1,228.7
	c-1,0.4-2.2-0.1-2.6-1.2c-0.4-1,0.1-2.2,1.2-2.6l246.1-93.2c1-0.4,2.2,0.1,2.6,1.2c0.4,1-0.1,2.2-1.2,2.6L26.1,228.7z"/>
<polygon class="st2" points="598.8,356.4 179,356.4 303.5,179.8 598.8,180.6 "/>
<g>
	<defs>
		<path id="SVGID_1_" d="M409.4,217.2c0-1.6,0.4-5.2,0.7-6.5c1-3.6,0.6-5.2,2.4-8.7c0.5-0.9,0.6-1.6,1-2.6c0.6-1.4,2.7-4.1,3.7-5.5
			l2.8-2.7c0.8-0.5,1.3-1,2.2-1.4c2.6-1.4,1.5-1.4,5-2.4c0.5-0.2,0.8-0.3,1.4-0.6c2-1.1,1.5-0.7,4.4-1.2c4-0.7,8.6-0.5,12.5,0.3
			c1,0.2,2.1,1,4.2,1.8c1.2,0.4,0.5,0.2,1.4,0.8c0.9,0.7,1.8,0.8,2.7,1.7l3.4,3.3c1.3,1.6,1.5,1.2,3.3,3.9c0.3,0.5,0.4,1,0.7,1.5
			c0.5,0.9,1.1,1.3,1.6,2.5c1,2.7,2.8,5.9,3.6,8.6c0.3,1.1,0.4,2.2,0.7,3.4c0.3,1.2,0.5,2.2,0.8,3.3c1,5.2,0.6,10,0.6,15.7
			c0,1.8-1.9,11.2-2.5,12.6l-3.6,7.9c-0.3,0.5-0.4,0.7-0.7,1.2l-2.8,4.2c0,0-0.1,0.1-0.1,0.1c0,0-0.1,0.1-0.1,0.1l-2.9,2.8
			c-1.1,1.1-1,0.8-2.2,1.6l-5,2.7c-0.4,0.1-1.1,0.3-1.5,0.4c-1.3,0.3-5.3,0.4-7,0.4c-1.8,0-2.6-0.4-4.3-0.5
			c-1.7-0.1-2.6-0.6-3.9-1.1c-0.7-0.3-1-0.5-1.7-0.7c-2.3-0.8-5.6-3.5-7.1-5.4l-3.5-3.9c-0.5-0.7-0.5-1.2-0.8-1.8
			c-0.4-0.6-0.7-0.7-1.1-1.3c-0.4-0.6-0.5-1.2-0.8-1.8c-0.3-0.5-0.7-0.9-0.9-1.5l-2.3-5.1l-2.1-8
			C409.5,228.2,409.4,225.1,409.4,217.2 M414.7,220.8c0,2.5,0.4,5.2,0.7,7.5c0.2,1.2,0.3,2.6,0.5,3.6l1.6,6.3
			c0.3,1.2,0.8,1.7,1.2,2.8c0.5,1.3,0.4,1.7,1.2,2.9c0.5,0.9,0.9,1.8,1.3,2.5l7.5,8.6c4,3.1,3.5,2.7,7.7,4.5
			c3.5,1.5,7.2,0.9,10.6-0.6c0.9-0.4,1.5-0.4,2.1-1c1.5-1.3,2.9-1.6,5-3.8l2.6-3.2c0.4-0.8,0.2-1,1.2-2c1.3-1.4,0.6-1.3,1.9-3.9
			c1.1-2.2,2.5-9.3,2.5-12.2c0-11.1,0.6-10.9-2.1-21.7c-0.9-3.6-0.9-2.5-1.7-5.3c-0.4-1.4-0.7-1.1-1.3-2.3c-1.2-2.3-1.8-3.5-3.4-5.5
			l-3.9-3.8c-3.5-2.7-4.2-2.3-6.6-3.2c-4-1.5-9-1.4-13,0.1c-3.1,1.2-0.7-0.3-4.2,1.8c-3,1.9-4.1,2.8-6.2,5.8c-0.4,0.6-0.8,1.5-1,2.1
			c-0.1,0.3-0.2,0.7-0.4,1c-1.6,3-0.8,1.8-2.1,5.4C415.1,211.1,414.7,216.7,414.7,220.8z M470.2,188.9c0-1.8,0.7-1.8,1.5-2.8
			c2.4-2.8,4.6-2.3,5.1,0c0.6,2.8,0.3,7.4,1.5,11.9c0.1,0.5,0.4,1.2,0.5,1.7c0.9,3.2,3.6,4,6.8,4.5c2.4,0.3,5.7,1.2,7.7,1.4
			c1.4,0.1,3,0.2,4.3,0.3c3,0.3,5,1,8.2,1c1,0,1.4,0.1,2,0.2c0.8,0.1,1.5,0,2.3,0.1c3.9,0.3,5.2,0.9,6.1-1.9l-0.1-9.9
			c0-4.4,2.5-5.8,5.7-4.5c0.6,0.2,0.7,0.4,1.2,0.8c1.2,0.9,1.1,1.8,0.4,3.3c-0.6,1.3-2.2,8.2-2.2,9.5c0,4.3,5.3-0.3,5.3,5
			c0,3.4-4.4,0.9-5.5,4.4l-1.7,12.9c-0.1,1.9-0.1,2.9-0.4,4.7c-0.6,3.8-1.3,9.1-2.1,12.5c-0.5,2.2-1.3,5.8-2.1,7.8l-3.7,8.5
			c-1,1.5-2,3.2-3.5,4.2c-4.3,2.7-5.3,1-7.2,0c-1.9-0.9-0.7-0.2-1.8-1.6c-0.5-0.6-0.3-0.2-0.8-0.8l-2.7-4.2
			c-0.5-0.9-0.6-0.7-1.4-2.2c-0.8-1.6-1.6-2.9-2.4-4.6c-0.9-1.9-0.6-0.9-1.6-3.5c-0.5-1.3-0.9-0.9-1.6-3.4c-0.3-1.1-0.4-1.6-1-2.6
			c-1.7-3-0.7-1.8-2.2-4.8c-0.4-0.8-0.5-1.6-0.8-2.6l-2.9-7.4c-0.3-0.8-0.5-1.9-0.7-2.6c-0.4-1.2-0.7-1.3-1.1-2.5
			c-0.6-1.8-1.1-3.5-1.7-5.2l-3-10.9c-1.6-5.1-1.5-8-2.6-11.4l-0.6-2.7C470.9,190.3,470.2,190.4,470.2,188.9z M503.3,257
			c1.5,0.3,2.3-0.9,2.9-1.9c0.4-0.6,0.8-1,1.1-1.5c0.2-0.5,0.4-1.2,0.6-1.8c0.5-1.6,1.2-1.9,1.5-3.5c0.2-0.8,0.2-1.4,0.4-2.2
			c0.2-0.9,1.2-2.8,1.6-5.9c0.5-3.4,1.1-5.5,1.4-8.6l1.3-9c0.2-1.2,1.3-8,0.9-8.8c-0.6-1.5-4.7-1-8.6-1.5l-9.5-0.6
			c-2.1,0-6.8-0.9-8.9-1.4c-0.7-0.2-3.8-0.6-4.5-0.5c-2.9,0.3-1.6,3.6-1.1,4.9c0.3,0.8,0.2,1.1,0.5,1.9c0.4,1.2,0.9,1.6,1.4,3.6
			c0.8,3.3,0.3,1.5,1.4,3.7c0.5,1.1,0.7,2.7,1.2,3.9c0.2,0.6,0.6,1.1,0.8,1.8c0.2,0.7,0.3,1.2,0.5,1.9c0.4,1.5,1.1,2.2,1.6,3.7
			c0.2,0.8,0.2,1.2,0.6,2l2.3,5.2c0.5,0.9,0.5,0.6,0.8,1.8c0.2,0.7,0.4,1.3,0.6,1.8l2.8,4.9c0.3,0.7,0.5,0.9,0.9,1.5
			C499.5,254.5,500.5,256.5,503.3,257z M295.9,243.1c0-6.1,0-3.7,0.8-8.6c0.3-1.8,1.5-3.4,2.1-5.1c0.5-1.5,3-4.7,4.2-5.7
			c0.6-0.5,0.7-0.5,1.3-1.1c1.2-1.3,2.5-2.5,3.9-3.6c0.6-0.4,0.8-0.5,1.4-1l11.3-8.3c0.9-0.5,0.6,0,1.5-0.9c1.2-1.1,3-2.1,4.3-3.1
			c0.5-0.4,0.7-0.7,1.3-1.1c0.7-0.6,3.3-3,3.7-3.8c1-1.8,2.8-3.8,0.6-6.7c-3.5-4.7-10.3-4-15.6-4c-4.4,0-8.3,0.9-11.6,3.3
			c-3.5,2.6-4.9,5.8-9.3,5.8c-2.3,0-2.4-1.3-2.4-3.1c0-1.2,1.6-3.2,2.5-4c3.4-2.7,2.7-1.6,5.6-3.1c0.7-0.3,0.7-0.5,1.3-0.8
			c1-0.5,2.3-0.6,3.5-0.8c3.7-0.7,3.9-1.9,11.1-1.9c3.5,0,6.9-0.1,10.3,1c1.1,0.4,1.5,0.7,2.8,1c1.1,0.2,2.1,0.5,3,1.1
			c3.6,2.5,4,1.8,6.2,5.8c0.8,1.4,1.1,4.4,0.2,6c-0.7,1.3-0.9,2.7-2,3.8l-2,2.1c-1.6,1.2-1.5,1.8-4.1,3.5l-4.1,3.1
			c-0.5,0.4-1,0.6-1.6,1l-8.6,6.2c-0.5,0.4-0.9,0.6-1.4,1c-0.7,0.5-0.7,0.8-1.4,1.3c-2.6,1.6-3.6,2.2-5.5,4.6
			c-0.8,0.9-1.7,1.5-2.3,2.5c-0.3,0.5-0.5,1-0.8,1.6c-2.1,3-2.2,2.1-3.3,6.8l-0.5,4.6c0,6.4,1.4,7.2,3.6,11.3
			c0.9,1.8,3.6,4.6,5.4,5.4c1.4,0.6,0.9,1,2.9,1.4c4.4,0.9,3.6,1.3,8.2-0.1c0.7-0.2,1.3-0.8,1.7-1.2c1.4-1.3,1.7-1.3,2.9-3.1
			c1.8-2.7,3.4-7.5,3.9-10.7c0.4-2.6,0.8-8.3,0.1-10.8c-1-3.2-2.1-4.8,0.1-7.5c2.9-3.7,6.5,0,6.5,5.8c0,4.5-1.4,8-1.7,13
			c-0.2,3.3-1.4,7.5-3.1,10.3l-5.4,7.1c-1,1-3.2,2.6-4.6,3.1c-1.9,0.6-3.8,1.3-5.9,1.3c-3,0-7.2-1.1-9-2.3c-0.5-0.4-1-0.8-1.5-1.1
			c-1.1-0.8-2.2-1.6-3.1-2.7c-0.5-0.6-0.7-1.1-1.2-1.7l-2.2-3.3c-0.4-0.7-0.7-1.1-1.1-1.8c-0.3-0.8-0.4-1.3-0.8-2.1
			c-0.9-1.8-1-2.4-1.3-4.4C296.3,246.5,295.9,245.2,295.9,243.1z M370.3,252.9c0-2.5-0.1-8.3-0.4-10.4c-0.4-3,0-6-0.4-9l-1.4-17.6
			c0-6.3,0-12.8,1.5-18.9c0.5-2,1.9-4.5,3.4-6c2.6-2.6,0.9-0.8,2.6-2.2c3-2.5,12.5-2.3,16.2-1.6c1.1,0.2,1.9,0.1,3,0.1
			c1.6,0.1,3.7,0.4,5.2,0.8l4.8,1.2c6.2,1.3,2.8,6.1-0.6,6.1c-1.9,0-4.1-0.3-5.9-0.8l-3.6-1c-1-0.2-1.5-0.3-2.3-0.6
			c-4.6-1.7-10.4-2.6-14.2,1.1c-3.3,3.2-3.2,6.1-3.9,10.2c-0.4,2.5-0.2,8.3,0.1,10.6c0.1,1,0,1.9,0.1,2.8l0.8,7.8
			c0.2,1.5,0.2,3.8,0.3,5.2c0.2,1.8,0.1,3.6,0.3,5.4l1.1,18.8c0,2.3,0.7,3.4-0.4,7.7c-0.3,1.2-2,3.1-2.7,3.1
			C367.8,265.9,370.3,262.1,370.3,252.9z M347.3,206.4c0-4.5,0.3-7.3,0.7-11.8c0.1-1.3,1.1-3.6,1.6-4.6c2-4.1,7.8-2.6,7.1-0.4
			c-0.2,0.5-0.6,1.1-0.9,1.8c-0.3,0.9-0.3,1.4-0.6,2.3c-0.9,2.7-1.4,6.1-1.4,9.9l0.9,33.7c0.5,3.7,0.8,11.4,1.3,15.3
			c0.2,1.7,0.5,3.4,0.7,4.9c0.2,1.3,0.2,1.3,0.5,2.1c0.2,0.7,1.7,3.2-0.4,4.5c-3.1,2-6.7,0.5-8.3-2.4c-1-1.8-0.6-5-0.6-7.5
			c0-5.4,0-10.7,0-16.1c0-1.6-0.2-2.2-0.3-3.6l0-12.3c0-1.6-0.2-2.3-0.2-3.6L347.3,206.4z M568.1,200.9c-2.6,0-4.3,2.6-5.3,4.8
			c-0.2,0.4-0.3,0.8-0.4,1.2c-0.3,0.8-0.2,0.4-0.6,1c-1,1.4-0.7,2.9-1.7,4.5c-1,1.7-2.3,7.3-3.1,9.7c-0.9,2.5-1.7,6.8-2.6,8.5
			c-0.6,1.1-0.5,2.7-0.8,4l-1.5,5c-0.2,0.9-0.2,1.8-0.4,2.7c-0.5,1.8-1,3.1-1.4,5.1c-0.3,1.9-0.3,3.7-0.7,5.6
			c-0.3,1.6-0.8,3.7-0.9,5.6c-0.2,3.9,0.2,7.7-4.4,8.4c-1.2,0.2-4.7-0.3-5.8-0.6c-1.5-0.3-1.1-0.2-2-1.1c-2.5-2.5-0.5-3.2-0.5-6.2
			c0-6.6-0.4-12.5-0.5-19c0-1.4-0.4-3-0.5-4.3c-0.1-1.5,0-3.5,0-5l-0.2-7c0-1.2-0.2-1.2-0.3-2.4c0-1.6,0.1-3.2,0-4.8l-0.2-4.8
			c0-1.8,0-3.1-0.2-4.6c-0.2-1.8,0.1-3.3,0.2-4.8c0.1-1.9,0-2.7,0.3-4.5c0.4-2.7,0.2-3.5,1.1-6.3c1.6-4.9,7-4.3,8.6-1.2
			c-0.1,0.1-0.2,0.5-0.3,0.6c-1.3,2.1-2.2,1-2.7,5.2c-0.3,2.3,0,6.3,0,8.8c0,1.5-0.3,2.3-0.3,4.1c0,1.4,0.1,3.1,0,4.6
			c-0.2,2.9-0.5,5.3-0.5,8.4l0,7.9c0,1.5,0.3,1.9,0.3,3.3c0,3.3,0.6,14.5,1,17.2c0.2,1.2,0.5,1.9,1.9,2c0.2-0.8,0.4-1.2,0.6-2
			c0.2-0.8,0.3-1.4,0.5-2.2l1.5-6.4c0.4-2.5,1.3-4.6,1.5-6.5c0.3-3.4,1.5-5.2,2-8.6c0.2-1.5,0.5-2.9,1-4.3c0.5-1.4,0.7-2.8,1.1-4.2
			l2.4-8.1c0.5-1.2,0.7-2.8,1.2-4c0.2-0.6,0.7-1.1,0.9-1.7c0.5-1.2,0.6-2.9,1.5-3.8c0.8-0.9,0.5-0.5,1-1.6c0.7-1.7,2.5-3.1,3.7-4.3
			c0.7-0.7,0.3-0.6,1.3-1.3c2.9-1.9,4.7-1.8,7.4-0.3c2.5,1.4,5.6,6.5,6.6,9.3c0.4,1,0.4,0.8,0.8,1.6l4.3,11.7
			c0.2,0.9,0.3,1.3,0.5,1.9l2.1,7c0.7,1.7,0.9,3.8,1.4,5.6c0.2,0.7,0.4,1,0.7,1.7c0.7,2.3,0.3,2.4,1.9,7.2c0.5,1.4,0.6,3.3,1.5,3.3
			c1.3,0,0.5-2.6,0.5-3.8c0-3.4-0.3-6.2-0.7-9.4c-0.6-4.5-0.7-8.9-0.9-13.7c-0.2-3.2-0.7-6-0.7-9.4c0-3.9,0.4-7.6,0.7-11.3
			c0.1-1.3,2.1-6.8,2.7-7.4l1.7-1.7c1-0.6,4.4-1.4,4.4,0.5c0,1.9-0.9,2-1.6,4c-0.3,0.8-0.3,1.5-0.6,2.3c-0.2,0.8-0.5,1.3-0.5,2.4
			c0,10.8-0.2,22,0.7,32.7c0.1,1.1-0.1,2.2,0,3.3c0.1,0.9,0.4,2.1,0.4,3.2c0.2,3.3,0.1,6.4,0.5,9.8c-0.3,8.1,1.4,20.6-2.6,22.8
			c-1.9,1.5-1.8,1.3-3.9,0.5c-3.4-1.3-1.2-4.6-2.1-7.8c-0.2-0.9-0.5-1.2-0.8-2.1l-2.6-9.2c-0.1-0.7-0.3-1.6-0.5-2.4
			c-0.6-2.4-0.9-5.1-1.5-7.6l-1.3-4.7c-0.3-1.7-0.5-3.2-1.1-4.7c-0.7-1.7-0.7-3-1.2-4.8c-0.5-1.9-1.1-2.3-1.5-4.3
			c-0.2-1-0.3-1.5-0.6-2.3l-1.5-4.5c-0.3-0.8-0.8-1.2-1.1-1.8c-0.3-0.7-0.2-1.4-0.7-2.2l-2.8-4.7c-1.2-1.7-0.2-0.7-2.1-2.5
			C569.5,201.4,569.2,200.9,568.1,200.9z"/>
	</defs>
	<clipPath id="SVGID_2_">
		<use xlink:href="#SVGID_1_"  style="overflow:visible;"/>
	</clipPath>
	
		<rect x="292.9" y="179.3" transform="matrix(0.999 -4.570631e-02 4.570631e-02 0.999 -8.004 20.561)" class="st3" width="305.5" height="12"/>
	
		<rect x="293.1" y="191.2" transform="matrix(0.999 -4.570758e-02 4.570758e-02 0.999 -8.2796 20.5805)" class="st4" width="305.5" height="0.2"/>
	
		<rect x="293.2" y="191.4" transform="matrix(0.999 -4.573384e-02 4.573384e-02 0.999 -8.2905 20.5929)" class="st5" width="305.5" height="0.2"/>
	
		<rect x="293.2" y="191.5" transform="matrix(0.999 -4.513381e-02 4.513381e-02 0.999 -8.1942 20.3206)" class="st6" width="305.5" height="0.2"/>
	
		<rect x="293.2" y="191.7" transform="matrix(0.9989 -4.681463e-02 4.681463e-02 0.9989 -8.4884 21.0853)" class="st7" width="305.5" height="0.2"/>
	
		<rect x="293.2" y="191.8" transform="matrix(0.999 -4.570758e-02 4.570758e-02 0.999 -8.3054 20.5823)" class="st8" width="305.5" height="0.2"/>
	
		<rect x="293.2" y="191.9" transform="matrix(0.999 -4.572727e-02 4.572727e-02 0.999 -8.3152 20.5917)" class="st9" width="305.5" height="0.2"/>
	
		<rect x="293.2" y="192.1" transform="matrix(0.999 -4.542070e-02 4.542070e-02 0.999 -8.269 20.4527)" class="st10" width="305.5" height="0.2"/>
	
		<rect x="293.2" y="192.2" transform="matrix(0.999 -4.508850e-02 4.508850e-02 0.999 -8.2182 20.3021)" class="st11" width="305.5" height="0.2"/>
	
		<rect x="293.2" y="192.4" transform="matrix(0.999 -4.544028e-02 4.544028e-02 0.999 -8.2852 20.4625)" class="st12" width="305.5" height="0.2"/>
	
		<rect x="293.2" y="192.5" transform="matrix(0.9989 -4.716209e-02 4.716209e-02 0.9989 -8.5877 21.2462)" class="st13" width="305.5" height="0.2"/>
	
		<rect x="293.2" y="192.6" transform="matrix(0.999 -4.515327e-02 4.515327e-02 0.999 -8.2485 20.3329)" class="st14" width="305.5" height="0.2"/>
	
		<rect x="293.2" y="192.8" transform="matrix(0.999 -4.508850e-02 4.508850e-02 0.999 -8.2437 20.3039)" class="st15" width="305.5" height="0.2"/>
	
		<rect x="293.2" y="192.9" transform="matrix(0.999 -4.515327e-02 4.515327e-02 0.999 -8.2613 20.3338)" class="st16" width="305.5" height="0.2"/>
	
		<rect x="293.2" y="193.1" transform="matrix(0.999 -4.572727e-02 4.572727e-02 0.999 -8.3669 20.5952)" class="st17" width="305.5" height="0.2"/>
	
		<rect x="293.2" y="193.2" transform="matrix(0.999 -4.572727e-02 4.572727e-02 0.999 -8.3733 20.5957)" class="st18" width="305.5" height="0.2"/>
	<polygon class="st19" points="598.6,186.4 598.6,186.6 293.4,200.5 293.4,200.3 	"/>
	
		<rect x="293.3" y="193.5" transform="matrix(0.999 -4.515327e-02 4.515327e-02 0.999 -8.2868 20.3355)" class="st20" width="305.5" height="0.2"/>
	
		<rect x="293.3" y="193.6" transform="matrix(0.999 -4.542070e-02 4.542070e-02 0.999 -8.3396 20.4576)" class="st21" width="305.5" height="0.2"/>
	
		<rect x="293.3" y="193.8" transform="matrix(0.999 -4.572727e-02 4.572727e-02 0.999 -8.3992 20.5975)" class="st22" width="305.5" height="0.2"/>
	
		<rect x="293.3" y="193.9" transform="matrix(0.999 -4.513381e-02 4.513381e-02 0.999 -8.3025 20.328)" class="st23" width="305.5" height="0.2"/>
	
		<rect x="293.3" y="194.1" transform="matrix(0.9989 -4.658820e-02 4.658820e-02 0.9989 -8.5615 20.9901)" class="st24" width="305.5" height="0.2"/>
	
		<rect x="293.3" y="194.2" transform="matrix(0.9989 -4.656813e-02 4.656813e-02 0.9989 -8.5646 20.9814)" class="st25" width="305.5" height="0.2"/>
	
		<rect x="293.3" y="194.3" transform="matrix(0.999 -4.544028e-02 4.544028e-02 0.999 -8.375 20.4687)" class="st26" width="305.5" height="0.2"/>
	
		<rect x="293.3" y="194.5" transform="matrix(0.999 -4.573384e-02 4.573384e-02 0.999 -8.4326 20.6027)" class="st27" width="305.5" height="0.2"/>
	
		<rect x="293.3" y="194.6" transform="matrix(0.999 -4.515327e-02 4.515327e-02 0.999 -8.3378 20.339)" class="st27" width="305.5" height="0.2"/>
	
		<rect x="293.3" y="194.8" transform="matrix(0.999 -4.515975e-02 4.515975e-02 0.999 -8.3453 20.3424)" class="st28" width="305.5" height="0.2"/>
	
		<rect x="293.3" y="194.9" transform="matrix(0.9989 -4.658820e-02 4.658820e-02 0.9989 -8.601 20.9928)" class="st29" width="305.5" height="0.2"/>
	
		<rect x="293.3" y="195" transform="matrix(0.9989 -4.716209e-02 4.716209e-02 0.9989 -8.7076 21.2545)" class="st30" width="305.5" height="0.2"/>
	
		<rect x="293.3" y="195.2" transform="matrix(0.999 -4.515327e-02 4.515327e-02 0.999 -8.3633 20.3408)" class="st31" width="305.5" height="0.2"/>
	
		<rect x="293.3" y="195.3" transform="matrix(0.999 -4.544028e-02 4.544028e-02 0.999 -8.42 20.4718)" class="st32" width="305.5" height="0.2"/>
	
		<rect x="293.3" y="195.5" transform="matrix(0.999 -4.515327e-02 4.515327e-02 0.999 -8.3761 20.3416)" class="st32" width="305.5" height="0.2"/>
	
		<rect x="293.3" y="195.6" transform="matrix(0.999 -4.572727e-02 4.572727e-02 0.999 -8.4831 20.6032)" class="st33" width="305.5" height="0.2"/>
	
		<rect x="293.4" y="195.8" transform="matrix(0.9989 -4.656813e-02 4.656813e-02 0.9989 -8.637 20.9864)" class="st32" width="305.5" height="0.2"/>
	
		<rect x="293.4" y="195.9" transform="matrix(0.9989 -4.658820e-02 4.658820e-02 0.9989 -8.647 20.996)" class="st32" width="305.5" height="0.2"/>
	
		<rect x="293.4" y="196" transform="matrix(0.999 -4.513381e-02 4.513381e-02 0.999 -8.3981 20.3345)" class="st33" width="305.5" height="0.2"/>
	
		<rect x="293.4" y="196.2" transform="matrix(0.999 -4.573384e-02 4.573384e-02 0.999 -8.5101 20.608)" class="st33" width="305.5" height="0.2"/>
	
		<rect x="293.4" y="196.3" transform="matrix(0.999 -4.542070e-02 4.542070e-02 0.999 -8.4614 20.4659)" class="st33" width="305.5" height="0.2"/>
	
		<rect x="293.4" y="196.5" transform="matrix(0.999 -4.515975e-02 4.515975e-02 0.999 -8.4218 20.3476)" class="st33" width="305.5" height="0.2"/>
	
		<rect x="293.4" y="196.6" transform="matrix(0.9989 -4.656813e-02 4.656813e-02 0.9989 -8.6764 20.9891)" class="st33" width="305.5" height="0.2"/>
	
		<rect x="293.4" y="196.7" transform="matrix(0.9989 -4.658820e-02 4.658820e-02 0.9989 -8.6865 20.9987)" class="st33" width="305.5" height="0.2"/>
	
		<rect x="293.4" y="196.9" transform="matrix(0.999 -4.570758e-02 4.570758e-02 0.999 -8.5378 20.5983)" class="st33" width="305.5" height="0.2"/>
	
		<rect x="293.4" y="197" transform="matrix(0.999 -4.572727e-02 4.572727e-02 0.999 -8.5477 20.6077)" class="st34" width="305.5" height="0.2"/>
	
		<rect x="293.4" y="197.2" transform="matrix(0.999 -4.513381e-02 4.513381e-02 0.999 -8.4491 20.338)" class="st34" width="305.5" height="0.2"/>
	
		<rect x="293.4" y="197.3" transform="matrix(0.999 -4.544028e-02 4.544028e-02 0.999 -8.5098 20.4779)" class="st34" width="305.5" height="0.2"/>
	
		<rect x="293.4" y="197.5" transform="matrix(0.9989 -4.658820e-02 4.658820e-02 0.9989 -8.7194 21.001)" class="st35" width="305.5" height="0.2"/>
	
		<rect x="293.4" y="197.6" transform="matrix(0.9989 -4.716209e-02 4.716209e-02 0.9989 -8.8274 21.2628)" class="st35" width="305.5" height="0.2"/>
	
		<rect x="293.4" y="197.7" transform="matrix(0.999 -4.508850e-02 4.508850e-02 0.999 -8.4666 20.3191)" class="st34" width="305.5" height="0.2"/>
	
		<rect x="293.5" y="197.9" transform="matrix(0.999 -4.512734e-02 4.512734e-02 0.999 -8.4799 20.3372)" class="st36" width="305.5" height="0.2"/>
	
		<rect x="293.5" y="198" transform="matrix(0.999 -4.515327e-02 4.515327e-02 0.999 -8.4908 20.3495)" class="st35" width="305.5" height="0.2"/>
	
		<rect x="293.5" y="198.2" transform="matrix(0.999 -4.570101e-02 4.570101e-02 0.999 -8.5947 20.5993)" class="st35" width="305.5" height="0.2"/>
	
		<rect x="293.5" y="198.3" transform="matrix(0.9989 -4.680791e-02 4.680791e-02 0.9989 -8.7979 21.1038)" class="st35" width="305.5" height="0.2"/>
	
		<rect x="293.5" y="198.4" transform="matrix(0.9989 -4.656813e-02 4.656813e-02 0.9989 -8.7619 20.995)" class="st35" width="305.5" height="0.2"/>
	
		<rect x="293.5" y="198.6" transform="matrix(0.999 -4.544028e-02 4.544028e-02 0.999 -8.5676 20.4819)" class="st35" width="305.5" height="0.2"/>
	
		<rect x="293.5" y="198.7" transform="matrix(0.999 -4.570758e-02 4.570758e-02 0.999 -8.6217 20.604)" class="st35" width="305.5" height="0.2"/>
	
		<rect x="293.5" y="198.9" transform="matrix(0.999 -4.566823e-02 4.566823e-02 0.999 -8.6211 20.5866)" class="st35" width="305.5" height="0.2"/>
	
		<rect x="293.5" y="199" transform="matrix(0.999 -4.542070e-02 4.542070e-02 0.999 -8.5833 20.4743)" class="st35" width="305.5" height="0.2"/>
	
		<rect x="293.5" y="199.1" transform="matrix(0.9989 -4.658820e-02 4.658820e-02 0.9989 -8.7984 21.0064)" class="st37" width="305.5" height="0.2"/>
	
		<rect x="293.5" y="199.3" transform="matrix(0.9989 -4.656813e-02 4.656813e-02 0.9989 -8.8014 20.9978)" class="st38" width="305.5" height="0.2"/>
	
		<rect x="293.5" y="199.4" transform="matrix(0.999 -4.566168e-02 4.566168e-02 0.999 -8.6458 20.5853)" class="st37" width="305.5" height="0.2"/>
	
		<rect x="293.5" y="199.6" transform="matrix(0.999 -4.515975e-02 4.515975e-02 0.999 -8.5622 20.3572)" class="st37" width="305.5" height="0.2"/>
	
		<rect x="293.5" y="199.7" transform="matrix(0.999 -4.515327e-02 4.515327e-02 0.999 -8.5674 20.3547)" class="st37" width="305.5" height="0.2"/>
	
		<rect x="293.5" y="199.9" transform="matrix(0.999 -4.515975e-02 4.515975e-02 0.999 -8.5749 20.3581)" class="st37" width="305.5" height="0.2"/>
	
		<rect x="293.6" y="200" transform="matrix(0.9989 -4.709445e-02 4.709445e-02 0.9989 -8.9286 21.2399)" class="st39" width="305.5" height="0.2"/>
	
		<rect x="293.6" y="200.1" transform="matrix(0.9989 -4.716209e-02 4.716209e-02 0.9989 -8.9473 21.2712)" class="st40" width="305.5" height="0.2"/>
	
		<rect x="293.6" y="200.3" transform="matrix(0.999 -4.542070e-02 4.542070e-02 0.999 -8.6411 20.4783)" class="st37" width="305.5" height="0.2"/>
	
		<rect x="293.6" y="200.4" transform="matrix(0.999 -4.515327e-02 4.515327e-02 0.999 -8.5993 20.3569)" class="st40" width="305.5" height="0.2"/>
	
		<rect x="293.6" y="200.6" transform="matrix(0.999 -4.538160e-02 4.538160e-02 0.999 -8.6468 20.4613)" class="st40" width="305.5" height="0.2"/>
	
		<rect x="293.6" y="200.7" transform="matrix(0.999 -4.572727e-02 4.572727e-02 0.999 -8.7156 20.6192)" class="st41" width="305.5" height="0.2"/>
	
		<rect x="293.6" y="200.8" transform="matrix(0.9989 -4.656813e-02 4.656813e-02 0.9989 -8.8737 21.0028)" class="st40" width="305.5" height="0.2"/>
	
		<rect x="293.6" y="201" transform="matrix(0.9989 -4.658820e-02 4.658820e-02 0.9989 -8.8839 21.0124)" class="st42" width="305.5" height="0.2"/>
	
		<rect x="293.6" y="201.1" transform="matrix(0.999 -4.513381e-02 4.513381e-02 0.999 -8.6276 20.3502)" class="st42" width="305.5" height="0.2"/>
	
		<rect x="293.6" y="201.3" transform="matrix(0.999 -4.544680e-02 4.544680e-02 0.999 -8.6907 20.4932)" class="st43" width="305.5" height="0.2"/>
	
		<rect x="293.6" y="201.4" transform="matrix(0.999 -4.570758e-02 4.570758e-02 0.999 -8.7443 20.6125)" class="st41" width="305.5" height="0.2"/>
	
		<rect x="293.6" y="201.6" transform="matrix(0.999 -4.515975e-02 4.515975e-02 0.999 -8.6514 20.3634)" class="st44" width="305.5" height="0.2"/>
	
		<rect x="293.6" y="201.7" transform="matrix(0.9989 -4.658820e-02 4.658820e-02 0.9989 -8.9168 21.0146)" class="st41" width="305.5" height="0.2"/>
	
		<rect x="293.6" y="201.8" transform="matrix(0.9989 -4.659154e-02 4.659154e-02 0.9989 -8.924 21.0166)" class="st41" width="305.5" height="0.2"/>
	
		<rect x="293.6" y="202" transform="matrix(0.999 -4.573056e-02 4.573056e-02 0.999 -8.7743 20.6247)" class="st43" width="305.5" height="0.2"/>
	
		<rect x="293.6" y="202.1" transform="matrix(0.999 -4.515651e-02 4.515651e-02 0.999 -8.6764 20.3636)" class="st43" width="305.5" height="0.2"/>
	
		<rect x="293.7" y="202.3" transform="matrix(0.999 -4.544028e-02 4.544028e-02 0.999 -8.7344 20.4933)" class="st43" width="305.5" height="0.2"/>
	
		<rect x="293.7" y="202.4" transform="matrix(0.999 -4.515327e-02 4.515327e-02 0.999 -8.6885 20.363)" class="st45" width="305.5" height="0.2"/>
	
		<rect x="293.7" y="202.5" transform="matrix(0.9989 -4.716548e-02 4.716548e-02 0.9989 -9.0612 21.2806)" class="st45" width="305.5" height="0.2"/>
	
		<rect x="293.7" y="202.7" transform="matrix(0.9989 -4.658820e-02 4.658820e-02 0.9989 -8.9629 21.0178)" class="st46" width="305.5" height="0.2"/>
	
		<rect x="293.7" y="202.8" transform="matrix(0.999 -4.515327e-02 4.515327e-02 0.999 -8.7077 20.3643)" class="st46" width="305.5" height="0.2"/>
	
		<rect x="293.7" y="203" transform="matrix(0.999 -4.513381e-02 4.513381e-02 0.999 -8.7105 20.3559)" class="st45" width="305.5" height="0.2"/>
	
		<rect x="293.7" y="203.1" transform="matrix(0.999 -4.515327e-02 4.515327e-02 0.999 -8.7204 20.3652)" class="st46" width="305.5" height="0.2"/>
	
		<rect x="293.7" y="203.2" transform="matrix(0.999 -4.570758e-02 4.570758e-02 0.999 -8.8283 20.6182)" class="st47" width="305.5" height="0.2"/>
	
		<rect x="293.7" y="203.4" transform="matrix(0.9989 -4.659154e-02 4.659154e-02 0.9989 -8.9964 21.0216)" class="st47" width="305.5" height="0.2"/>
	
		<rect x="293.7" y="203.5" transform="matrix(0.9989 -4.656479e-02 4.656479e-02 0.9989 -8.9981 21.0099)" class="st47" width="305.5" height="0.2"/>
	
		<rect x="293.7" y="203.7" transform="matrix(0.999 -4.515651e-02 4.515651e-02 0.999 -8.7465 20.3684)" class="st48" width="305.5" height="0.2"/>
	
		<rect x="293.7" y="203.8" transform="matrix(0.999 -4.570758e-02 4.570758e-02 0.999 -8.8541 20.62)" class="st47" width="305.5" height="0.2"/>
	
		<rect x="293.7" y="204" transform="matrix(0.999 -4.572727e-02 4.572727e-02 0.999 -8.8642 20.6294)" class="st48" width="305.5" height="0.2"/>
	
		<rect x="293.7" y="204.1" transform="matrix(0.999 -4.515651e-02 4.515651e-02 0.999 -8.7657 20.3697)" class="st46" width="305.5" height="0.2"/>
	
		<rect x="293.7" y="204.2" transform="matrix(0.9989 -4.687515e-02 4.687515e-02 0.9989 -9.0879 21.1537)" class="st48" width="305.5" height="0.2"/>
	
		<rect x="293.8" y="204.4" transform="matrix(0.999 -4.573056e-02 4.573056e-02 0.999 -8.8841 20.6322)" class="st48" width="305.5" height="0.2"/>
	
		<rect x="293.8" y="204.5" transform="matrix(0.999 -4.572727e-02 4.572727e-02 0.999 -8.89 20.6312)" class="st48" width="305.5" height="0.2"/>
	
		<rect x="293.8" y="204.7" transform="matrix(0.999 -4.515327e-02 4.515327e-02 0.999 -8.7906 20.37)" class="st48" width="305.5" height="0.2"/>
	
		<rect x="293.8" y="204.8" transform="matrix(0.999 -4.515327e-02 4.515327e-02 0.999 -8.7969 20.3704)" class="st48" width="305.5" height="0.2"/>
	
		<rect x="293.8" y="204.9" transform="matrix(0.999 -4.515327e-02 4.515327e-02 0.999 -8.8033 20.3709)" class="st48" width="305.5" height="0.2"/>
	
		<rect x="293.8" y="205.1" transform="matrix(0.9989 -4.714178e-02 4.714178e-02 0.9989 -9.1767 21.2781)" class="st48" width="305.5" height="0.2"/>
	
		<rect x="293.8" y="205.2" transform="matrix(0.999 -4.544354e-02 4.544354e-02 0.999 -8.8698 20.5041)" class="st49" width="305.5" height="0.2"/>
	
		<rect x="293.8" y="205.4" transform="matrix(0.999 -4.513381e-02 4.513381e-02 0.999 -8.8188 20.3633)" class="st49" width="305.5" height="0.2"/>
	
		<rect x="293.8" y="205.5" transform="matrix(0.999 -4.537509e-02 4.537509e-02 0.999 -8.87 20.4737)" class="st50" width="305.5" height="0.2"/>
	
		<rect x="293.8" y="205.7" transform="matrix(0.999 -4.570758e-02 4.570758e-02 0.999 -8.938 20.6258)" class="st49" width="305.5" height="0.2"/>
	
		<rect x="293.8" y="205.8" transform="matrix(0.999 -4.572727e-02 4.572727e-02 0.999 -8.9481 20.6352)" class="st49" width="305.5" height="0.2"/>
	
		<rect x="293.8" y="205.9" transform="matrix(0.9989 -4.656813e-02 4.656813e-02 0.9989 -9.1105 21.0191)" class="st49" width="305.5" height="0.2"/>
	
		<rect x="293.8" y="206.1" transform="matrix(0.999 -4.509173e-02 4.509173e-02 0.999 -8.8429 20.3463)" class="st49" width="305.5" height="0.2"/>
	
		<rect x="293.8" y="206.2" transform="matrix(0.999 -4.515327e-02 4.515327e-02 0.999 -8.8607 20.3748)" class="st51" width="305.5" height="0.2"/>
	
		<rect x="293.8" y="206.4" transform="matrix(0.999 -4.572727e-02 4.572727e-02 0.999 -8.9739 20.637)" class="st49" width="305.5" height="0.2"/>
	
		<rect x="293.8" y="206.5" transform="matrix(0.999 -4.513381e-02 4.513381e-02 0.999 -8.8698 20.3668)" class="st51" width="305.5" height="0.2"/>
	
		<rect x="293.9" y="206.6" transform="matrix(0.999 -4.509173e-02 4.509173e-02 0.999 -8.8684 20.3481)" class="st52" width="305.5" height="0.2"/>
	
		<rect x="293.9" y="206.8" transform="matrix(0.9989 -4.658820e-02 4.658820e-02 0.9989 -9.1537 21.031)" class="st51" width="305.5" height="0.2"/>
	
		<rect x="293.9" y="206.9" transform="matrix(0.999 -4.573056e-02 4.573056e-02 0.999 -9.0004 20.6402)" class="st52" width="305.5" height="0.2"/>
	
		<rect x="293.9" y="207.1" transform="matrix(0.999 -4.572727e-02 4.572727e-02 0.999 -9.0062 20.6392)" class="st51" width="305.5" height="0.2"/>
	
		<rect x="293.9" y="207.2" transform="matrix(0.999 -4.537835e-02 4.537835e-02 0.999 -8.9475 20.4805)" class="st53" width="305.5" height="0.2"/>
	
		<rect x="293.9" y="207.3" transform="matrix(0.999 -4.515651e-02 4.515651e-02 0.999 -8.9123 20.3798)" class="st53" width="305.5" height="0.2"/>
	
		<rect x="293.9" y="207.5" transform="matrix(0.999 -4.542070e-02 4.542070e-02 0.999 -8.9682 20.5007)" class="st53" width="305.5" height="0.2"/>
	
		<rect x="293.9" y="207.6" transform="matrix(0.9989 -4.716548e-02 4.716548e-02 0.9989 -9.301 21.2972)" class="st53" width="305.5" height="0.2"/>
	
		<rect x="293.9" y="207.8" transform="matrix(0.999 -4.506910e-02 4.506910e-02 0.999 -8.9151 20.3412)" class="st53" width="305.5" height="0.2"/>
	
		<rect x="293.9" y="207.9" transform="matrix(0.999 -4.515327e-02 4.515327e-02 0.999 -8.9372 20.38)" class="st54" width="305.5" height="0.2"/>
	
		<rect x="293.9" y="208.1" transform="matrix(0.999 -4.513381e-02 4.513381e-02 0.999 -8.94 20.3716)" class="st53" width="305.5" height="0.2"/>
	
		<rect x="293.9" y="208.2" transform="matrix(0.999 -4.544028e-02 4.544028e-02 0.999 -9.004 20.5118)" class="st55" width="305.5" height="0.2"/>
	
		<rect x="293.9" y="208.3" transform="matrix(0.999 -4.566495e-02 4.566495e-02 0.999 -9.0526 20.6148)" class="st55" width="305.5" height="0.2"/>
	
		<rect x="293.9" y="208.5" transform="matrix(0.9989 -4.659154e-02 4.659154e-02 0.9989 -9.2332 21.038)" class="st56" width="305.5" height="0.2"/>
	
		<rect x="293.9" y="208.6" transform="matrix(0.999 -4.513381e-02 4.513381e-02 0.999 -8.9655 20.3733)" class="st55" width="305.5" height="0.2"/>
	
		<rect x="294" y="208.8" transform="matrix(0.999 -4.573056e-02 4.573056e-02 0.999 -9.0843 20.646)" class="st56" width="305.5" height="0.2"/>
	
		<rect x="294" y="208.9" transform="matrix(0.999 -4.573056e-02 4.573056e-02 0.999 -9.0908 20.6465)" class="st55" width="305.5" height="0.2"/>
	
		<rect x="294" y="209" transform="matrix(0.999 -4.515327e-02 4.515327e-02 0.999 -8.9883 20.3835)" class="st55" width="305.5" height="0.2"/>
	
		<rect x="294" y="209.2" transform="matrix(0.999 -4.544354e-02 4.544354e-02 0.999 -9.0495 20.5164)" class="st57" width="305.5" height="0.2"/>
	
		<rect x="294" y="209.3" transform="matrix(0.9989 -4.658820e-02 4.658820e-02 0.9989 -9.2721 21.0392)" class="st57" width="305.5" height="0.2"/>
	
		<rect x="294" y="209.5" transform="matrix(0.999 -4.572727e-02 4.572727e-02 0.999 -9.116 20.6467)" class="st57" width="305.5" height="0.2"/>
	
		<rect x="294" y="209.6" transform="matrix(0.999 -4.570758e-02 4.570758e-02 0.999 -9.1187 20.6382)" class="st58" width="305.5" height="0.2"/>
	
		<rect x="294" y="209.8" transform="matrix(0.999 -4.515327e-02 4.515327e-02 0.999 -9.0201 20.3857)" class="st57" width="305.5" height="0.2"/>
	
		<rect x="294" y="209.9" transform="matrix(0.999 -4.513381e-02 4.513381e-02 0.999 -9.0228 20.3773)" class="st58" width="305.5" height="0.2"/>
	
		<rect x="294" y="210" transform="matrix(0.999 -4.515651e-02 4.515651e-02 0.999 -9.0335 20.3881)" class="st57" width="305.5" height="0.2"/>
	<polygon class="st58" points="599.3,203.2 599.3,203.4 294.2,217.4 294.2,217.2 	"/>
	
		<rect x="294" y="210.3" transform="matrix(0.999 -4.515327e-02 4.515327e-02 0.999 -9.0456 20.3875)" class="st58" width="305.5" height="0.2"/>
	
		<rect x="294" y="210.5" transform="matrix(0.999 -4.542070e-02 4.542070e-02 0.999 -9.1029 20.5099)" class="st58" width="305.5" height="0.2"/>
	
		<rect x="294" y="210.6" transform="matrix(0.999 -4.515327e-02 4.515327e-02 0.999 -9.0584 20.3883)" class="st59" width="305.5" height="0.2"/>
	
		<rect x="294" y="210.7" transform="matrix(0.999 -4.570758e-02 4.570758e-02 0.999 -9.1704 20.6417)" class="st58" width="305.5" height="0.2"/>
	
		<rect x="294" y="210.9" transform="matrix(0.999 -4.572727e-02 4.572727e-02 0.999 -9.1806 20.6512)" class="st59" width="305.5" height="0.2"/>
	
		<rect x="294.1" y="211" transform="matrix(0.9989 -4.656813e-02 4.656813e-02 0.9989 -9.3472 21.0355)" class="st59" width="305.5" height="0.2"/>
	
		<rect x="294.1" y="211.2" transform="matrix(0.999 -4.544028e-02 4.544028e-02 0.999 -9.1387 20.5211)" class="st60" width="305.5" height="0.2"/>
	
		<rect x="294.1" y="211.3" transform="matrix(0.999 -4.572727e-02 4.572727e-02 0.999 -9.2 20.6525)" class="st59" width="305.5" height="0.2"/>
	
		<rect x="294.1" y="211.4" transform="matrix(0.999 -4.572727e-02 4.572727e-02 0.999 -9.2064 20.6529)" class="st61" width="305.5" height="0.2"/>
	
		<rect x="294.1" y="211.6" transform="matrix(0.999 -4.515327e-02 4.515327e-02 0.999 -9.103 20.3914)" class="st62" width="305.5" height="0.2"/>
	
		<rect x="294.1" y="211.7" transform="matrix(0.999 -4.513381e-02 4.513381e-02 0.999 -9.1057 20.3829)" class="st61" width="305.5" height="0.2"/>
	
		<rect x="294.1" y="211.9" transform="matrix(0.9989 -4.658820e-02 4.658820e-02 0.9989 -9.3905 21.0474)" class="st62" width="305.5" height="0.2"/>
	
		<rect x="294.1" y="212" transform="matrix(0.999 -4.570758e-02 4.570758e-02 0.999 -9.2285 20.6457)" class="st61" width="305.5" height="0.2"/>
	
		<rect x="294.1" y="212.2" transform="matrix(0.999 -4.544028e-02 4.544028e-02 0.999 -9.1837 20.5241)" class="st63" width="305.5" height="0.2"/>
	
		<rect x="294.1" y="212.3" transform="matrix(0.999 -4.513381e-02 4.513381e-02 0.999 -9.1312 20.3847)" class="st62" width="305.5" height="0.2"/>
	
		<rect x="294.1" y="212.4" transform="matrix(0.999 -4.544354e-02 4.544354e-02 0.999 -9.1971 20.5265)" class="st64" width="305.5" height="0.2"/>
	
		<rect x="294.1" y="212.6" transform="matrix(0.999 -4.570429e-02 4.570429e-02 0.999 -9.2537 20.646)" class="st65" width="305.5" height="0.2"/>
	
		<rect x="294.1" y="212.7" transform="matrix(0.9989 -4.716548e-02 4.716548e-02 0.9989 -9.5408 21.3139)" class="st64" width="305.5" height="0.2"/>
	
		<rect x="294.1" y="212.9" transform="matrix(0.999 -4.513381e-02 4.513381e-02 0.999 -9.1567 20.3864)" class="st66" width="305.5" height="0.2"/>
	
		<rect x="294.1" y="213" transform="matrix(0.999 -4.515327e-02 4.515327e-02 0.999 -9.1668 20.3957)" class="st64" width="305.5" height="0.2"/>
	
		<rect x="294.2" y="213.1" transform="matrix(0.999 -4.513381e-02 4.513381e-02 0.999 -9.1694 20.3873)" class="st66" width="305.5" height="0.2"/>
	
		<rect x="294.2" y="213.3" transform="matrix(0.999 -4.566495e-02 4.566495e-02 0.999 -9.2784 20.6303)" class="st66" width="305.5" height="0.2"/>
	
		<rect x="294.2" y="213.4" transform="matrix(0.999 -4.544028e-02 4.544028e-02 0.999 -9.2414 20.5281)" class="st66" width="305.5" height="0.2"/>
	
		<rect x="294.2" y="213.6" transform="matrix(0.9989 -4.659154e-02 4.659154e-02 0.9989 -9.4701 21.0544)" class="st66" width="305.5" height="0.2"/>
	
		<rect x="294.2" y="213.7" transform="matrix(0.999 -4.544028e-02 4.544028e-02 0.999 -9.2542 20.529)" class="st67" width="305.5" height="0.2"/>
	
		<rect x="294.2" y="213.9" transform="matrix(0.999 -4.566168e-02 4.566168e-02 0.999 -9.3035 20.6305)" class="st67" width="305.5" height="0.2"/>
	
		<rect x="294.2" y="214" transform="matrix(0.999 -4.573056e-02 4.573056e-02 0.999 -9.3233 20.6624)" class="st67" width="305.5" height="0.2"/>
	
		<rect x="294.2" y="214.1" transform="matrix(0.999 -4.544028e-02 4.544028e-02 0.999 -9.2735 20.5303)" class="st68" width="305.5" height="0.2"/>
	
		<rect x="294.2" y="214.3" transform="matrix(0.999 -4.515651e-02 4.515651e-02 0.999 -9.2248 20.4012)" class="st68" width="305.5" height="0.2"/>
	
		<rect x="294.2" y="214.4" transform="matrix(0.9989 -4.681128e-02 4.681128e-02 0.9989 -9.5521 21.1575)" class="st68" width="305.5" height="0.2"/>
	
		<rect x="294.2" y="214.6" transform="matrix(0.999 -4.572727e-02 4.572727e-02 0.999 -9.3485 20.6627)" class="st68" width="305.5" height="0.2"/>
	
		<rect x="294.2" y="214.7" transform="matrix(0.999 -4.513381e-02 4.513381e-02 0.999 -9.2395 20.3921)" class="st69" width="305.5" height="0.2"/>
	
		<rect x="294.2" y="214.8" transform="matrix(0.999 -4.515327e-02 4.515327e-02 0.999 -9.2497 20.4014)" class="st70" width="305.5" height="0.2"/>
	
		<rect x="294.2" y="215" transform="matrix(0.999 -4.506910e-02 4.506910e-02 0.999 -9.2397 20.3634)" class="st71" width="305.5" height="0.2"/>
	
		<rect x="294.2" y="215.1" transform="matrix(0.9989 -4.687851e-02 4.687851e-02 0.9989 -9.5983 21.1906)" class="st72" width="305.5" height="0.2"/>
	
		<rect x="294.2" y="215.3" transform="matrix(0.9989 -4.656813e-02 4.656813e-02 0.9989 -9.5445 21.0492)" class="st71" width="305.5" height="0.2"/>
	
		<rect x="294.3" y="215.4" transform="matrix(0.999 -4.544028e-02 4.544028e-02 0.999 -9.3313 20.5343)" class="st72" width="305.5" height="0.2"/>
	
		<rect x="294.3" y="215.5" transform="matrix(0.999 -4.509173e-02 4.509173e-02 0.999 -9.2696 20.3755)" class="st73" width="305.5" height="0.2"/>
	
		<rect x="294.3" y="215.7" transform="matrix(0.999 -4.544028e-02 4.544028e-02 0.999 -9.3441 20.5351)" class="st74" width="305.5" height="0.2"/>
	
		<rect x="294.3" y="215.8" transform="matrix(0.999 -4.573056e-02 4.573056e-02 0.999 -9.4073 20.6682)" class="st75" width="305.5" height="0.2"/>
	
		<rect x="294.3" y="216" transform="matrix(0.9989 -4.659154e-02 4.659154e-02 0.9989 -9.582 21.0621)" class="st74" width="305.5" height="0.2"/>
	
		<rect x="294.3" y="216.1" transform="matrix(0.9989 -4.681128e-02 4.681128e-02 0.9989 -9.6315 21.163)" class="st76" width="305.5" height="0.2"/>
	
		<rect x="294.3" y="216.3" transform="matrix(0.999 -4.515327e-02 4.515327e-02 0.999 -9.3135 20.4058)" class="st75" width="305.5" height="0.2"/>
	
		<rect x="294.3" y="216.4" transform="matrix(0.999 -4.572727e-02 4.572727e-02 0.999 -9.4325 20.6685)" class="st77" width="305.5" height="0.2"/>
	
		<rect x="294.3" y="216.5" transform="matrix(0.999 -4.572727e-02 4.572727e-02 0.999 -9.4389 20.6689)" class="st76" width="305.5" height="0.2"/>
	
		<rect x="294.3" y="216.7" transform="matrix(0.999 -4.515651e-02 4.515651e-02 0.999 -9.3332 20.4086)" class="st77" width="305.5" height="0.2"/>
	
		<rect x="294.3" y="216.8" transform="matrix(0.9989 -4.656813e-02 4.656813e-02 0.9989 -9.6169 21.0542)" class="st78" width="305.5" height="0.2"/>
	
		<rect x="294.3" y="217" transform="matrix(0.9989 -4.658820e-02 4.658820e-02 0.9989 -9.6274 21.0638)" class="st77" width="305.5" height="0.2"/>
	
		<rect x="294.3" y="217.1" transform="matrix(0.999 -4.570758e-02 4.570758e-02 0.999 -9.4609 20.6617)" class="st78" width="305.5" height="0.2"/>
	
		<rect x="294.3" y="217.2" transform="matrix(0.999 -4.515327e-02 4.515327e-02 0.999 -9.3581 20.4088)" class="st78" width="305.5" height="0.2"/>
	
		<rect x="294.3" y="217.4" transform="matrix(0.999 -4.542070e-02 4.542070e-02 0.999 -9.4172 20.5315)" class="st78" width="305.5" height="0.2"/>
	
		<rect x="294.4" y="217.5" transform="matrix(0.999 -4.515651e-02 4.515651e-02 0.999 -9.3715 20.4112)" class="st78" width="305.5" height="0.2"/>
	
		<rect x="294.4" y="217.7" transform="matrix(0.9989 -4.713839e-02 4.713839e-02 0.9989 -9.7686 21.3177)" class="st79" width="305.5" height="0.2"/>
	
		<rect x="294.4" y="217.8" transform="matrix(0.9989 -4.658820e-02 4.658820e-02 0.9989 -9.6669 21.0665)" class="st80" width="305.5" height="0.2"/>
	
		<rect x="294.4" y="218" transform="matrix(0.999 -4.515327e-02 4.515327e-02 0.999 -9.39 20.411)" class="st81" width="305.5" height="0.2"/>
	
		<rect x="294.4" y="218.1" transform="matrix(0.999 -4.515327e-02 4.515327e-02 0.999 -9.3964 20.4115)" class="st82" width="305.5" height="0.2"/>
	
		<rect x="294.4" y="218.2" transform="matrix(0.999 -4.570758e-02 4.570758e-02 0.999 -9.5125 20.6652)" class="st82" width="305.5" height="0.2"/>
	
		<rect x="294.4" y="218.4" transform="matrix(0.999 -4.573056e-02 4.573056e-02 0.999 -9.5235 20.6762)" class="st83" width="305.5" height="0.2"/>
	
		<rect x="294.4" y="218.5" transform="matrix(0.9989 -4.658820e-02 4.658820e-02 0.9989 -9.6998 21.0688)" class="st80" width="305.5" height="0.2"/>
	
		<rect x="294.4" y="218.7" transform="matrix(0.9989 -4.659154e-02 4.659154e-02 0.9989 -9.707 21.0708)" class="st83" width="305.5" height="0.2"/>
	
		<rect x="294.4" y="218.8" transform="matrix(0.999 -4.515327e-02 4.515327e-02 0.999 -9.4283 20.4136)" class="st83" width="305.5" height="0.2"/>
	
		<rect x="294.4" y="218.9" transform="matrix(0.999 -4.570758e-02 4.570758e-02 0.999 -9.5448 20.6675)" class="st83" width="305.5" height="0.2"/>
	
		<rect x="294.4" y="219.1" transform="matrix(0.999 -4.544354e-02 4.544354e-02 0.999 -9.4988 20.5472)" class="st84" width="305.5" height="0.2"/>
	
		<rect x="294.4" y="219.2" transform="matrix(0.999 -4.513058e-02 4.513058e-02 0.999 -9.4429 20.4046)" class="st84" width="305.5" height="0.2"/>
	
		<rect x="294.4" y="219.4" transform="matrix(0.9989 -4.687851e-02 4.687851e-02 0.9989 -9.7969 21.2043)" class="st85" width="305.5" height="0.2"/>
	
		<rect x="294.4" y="219.5" transform="matrix(0.9989 -4.656813e-02 4.656813e-02 0.9989 -9.7418 21.0628)" class="st85" width="305.5" height="0.2"/>
	
		<rect x="294.4" y="219.6" transform="matrix(0.999 -4.572727e-02 4.572727e-02 0.999 -9.581 20.6787)" class="st86" width="305.5" height="0.2"/>
	
		<rect x="294.5" y="219.8" transform="matrix(0.999 -4.513381e-02 4.513381e-02 0.999 -9.469 20.4078)" class="st85" width="305.5" height="0.2"/>
	
		<rect x="294.5" y="219.9" transform="matrix(0.999 -4.515327e-02 4.515327e-02 0.999 -9.4793 20.4171)" class="st87" width="305.5" height="0.2"/>
	
		<rect x="294.5" y="220.1" transform="matrix(0.999 -4.513058e-02 4.513058e-02 0.999 -9.4811 20.4072)" class="st88" width="305.5" height="0.2"/>
	
		<rect x="294.5" y="220.2" transform="matrix(0.9989 -4.716548e-02 4.716548e-02 0.9989 -9.8938 21.3384)" class="st87" width="305.5" height="0.2"/>
	
		<rect x="294.5" y="220.4" transform="matrix(0.9989 -4.656813e-02 4.656813e-02 0.9989 -9.7813 21.0655)" class="st88" width="305.5" height="0.2"/>
	
		<rect x="294.5" y="220.5" transform="matrix(0.999 -4.515327e-02 4.515327e-02 0.999 -9.5048 20.4189)" class="st89" width="305.5" height="0.2"/>
	
		<rect x="294.5" y="220.6" transform="matrix(0.999 -4.544354e-02 4.544354e-02 0.999 -9.5694 20.552)" class="st90" width="305.5" height="0.2"/>
	
		<rect x="294.5" y="220.8" transform="matrix(0.999 -4.572727e-02 4.572727e-02 0.999 -9.6327 20.6822)" class="st91" width="305.5" height="0.2"/>
	
		<rect x="294.5" y="220.9" transform="matrix(0.999 -4.573056e-02 4.573056e-02 0.999 -9.6398 20.6842)" class="st92" width="305.5" height="0.2"/>
	
		<rect x="294.5" y="221.1" transform="matrix(0.9989 -4.681128e-02 4.681128e-02 0.9989 -9.8629 21.1791)" class="st93" width="305.5" height="0.2"/>
	
		<rect x="294.5" y="221.2" transform="matrix(0.9989 -4.658820e-02 4.658820e-02 0.9989 -9.8248 21.0774)" class="st94" width="305.5" height="0.2"/>
	
		<rect x="294.5" y="221.3" transform="matrix(0.999 -4.570758e-02 4.570758e-02 0.999 -9.6545 20.675)" class="st95" width="305.5" height="0.2"/>
	
		<rect x="294.5" y="221.5" transform="matrix(0.999 -4.572727e-02 4.572727e-02 0.999 -9.6649 20.6845)" class="st94" width="305.5" height="0.2"/>
	
		<rect x="294.5" y="221.6" transform="matrix(0.999 -4.506910e-02 4.506910e-02 0.999 -9.5388 20.3839)" class="st95" width="305.5" height="0.2"/>
	
		<rect x="294.5" y="221.8" transform="matrix(0.999 -4.515651e-02 4.515651e-02 0.999 -9.5628 20.4243)" class="st95" width="305.5" height="0.2"/>
	
		<rect x="294.6" y="221.9" transform="matrix(0.9989 -4.656813e-02 4.656813e-02 0.9989 -9.8536 21.0705)" class="st96" width="305.5" height="0.2"/>
	<polygon class="st97" points="599.9,215.1 599.9,215.3 294.7,229.2 294.7,229 	"/>
	
		<rect x="294.6" y="222.2" transform="matrix(0.999 -4.564204e-02 4.564204e-02 0.999 -9.68 20.6477)" class="st97" width="305.5" height="0.2"/>
	
		<rect x="294.6" y="222.3" transform="matrix(0.999 -4.544028e-02 4.544028e-02 0.999 -9.6457 20.5558)" class="st98" width="305.5" height="0.2"/>
	
		<rect x="294.6" y="222.5" transform="matrix(0.999 -4.513381e-02 4.513381e-02 0.999 -9.5901 20.4161)" class="st98" width="305.5" height="0.2"/>
	
		<rect x="294.6" y="222.6" transform="matrix(0.999 -4.544354e-02 4.544354e-02 0.999 -9.6592 20.5582)" class="st99" width="305.5" height="0.2"/>
	
		<rect x="294.6" y="222.8" transform="matrix(0.9989 -4.709445e-02 4.709445e-02 0.9989 -9.9994 21.3142)" class="st98" width="305.5" height="0.2"/>
	
		<rect x="294.6" y="222.9" transform="matrix(0.9989 -4.658820e-02 4.658820e-02 0.9989 -9.9037 21.0829)" class="st99" width="305.5" height="0.2"/>
	
		<rect x="294.6" y="223" transform="matrix(0.999 -4.544028e-02 4.544028e-02 0.999 -9.6778 20.558)" class="st100" width="305.5" height="0.2"/>
	
		<rect x="294.6" y="223.2" transform="matrix(0.999 -4.515327e-02 4.515327e-02 0.999 -9.626 20.4272)" class="st101" width="305.5" height="0.2"/>
	
		<rect x="294.6" y="223.3" transform="matrix(0.999 -4.566495e-02 4.566495e-02 0.999 -9.7363 20.6617)" class="st100" width="305.5" height="0.2"/>
	
		<rect x="294.6" y="223.5" transform="matrix(0.999 -4.570758e-02 4.570758e-02 0.999 -9.7514 20.6817)" class="st102" width="305.5" height="0.2"/>
	
		<rect x="294.6" y="223.6" transform="matrix(0.9989 -4.658820e-02 4.658820e-02 0.9989 -9.9366 21.0852)" class="st103" width="305.5" height="0.2"/>
	
		<rect x="294.6" y="223.7" transform="matrix(0.9989 -4.659154e-02 4.659154e-02 0.9989 -9.9439 21.0872)" class="st103" width="305.5" height="0.2"/>
	
		<rect x="294.6" y="223.9" transform="matrix(0.999 -4.566168e-02 4.566168e-02 0.999 -9.7614 20.662)" class="st104" width="305.5" height="0.2"/>
	
		<rect x="294.7" y="224" transform="matrix(0.999 -4.570758e-02 4.570758e-02 0.999 -9.7772 20.6834)" class="st105" width="305.5" height="0.2"/>
	
		<rect x="294.7" y="224.2" transform="matrix(0.999 -4.515651e-02 4.515651e-02 0.999 -9.6713 20.4317)" class="st105" width="305.5" height="0.2"/>
	
		<rect x="294.7" y="224.3" transform="matrix(0.999 -4.541744e-02 4.541744e-02 0.999 -9.7309 20.5515)" class="st106" width="305.5" height="0.2"/>
	
		<rect x="294.7" y="224.5" transform="matrix(0.9989 -4.658820e-02 4.658820e-02 0.9989 -9.9761 21.0879)" class="st107" width="305.5" height="0.2"/>
	
		<rect x="294.7" y="224.6" transform="matrix(0.999 -4.570758e-02 4.570758e-02 0.999 -9.803 20.6852)" class="st106" width="305.5" height="0.2"/>
	
		<rect x="294.7" y="224.7" transform="matrix(0.999 -4.515327e-02 4.515327e-02 0.999 -9.6961 20.432)" class="st106" width="305.5" height="0.2"/>
	
		<rect x="294.7" y="224.9" transform="matrix(0.999 -4.513381e-02 4.513381e-02 0.999 -9.6985 20.4235)" class="st108" width="305.5" height="0.2"/>
	
		<rect x="294.7" y="225" transform="matrix(0.999 -4.515651e-02 4.515651e-02 0.999 -9.7095 20.4343)" class="st108" width="305.5" height="0.2"/>
	
		<rect x="294.7" y="225.2" transform="matrix(0.999 -4.572727e-02 4.572727e-02 0.999 -9.8329 20.696)" class="st109" width="305.5" height="0.2"/>
	
		<rect x="294.7" y="225.3" transform="matrix(0.9989 -4.687851e-02 4.687851e-02 0.9989 -10.0749 21.2236)" class="st110" width="305.5" height="0.2"/>
	
		<rect x="294.7" y="225.4" transform="matrix(0.999 -4.515327e-02 4.515327e-02 0.999 -9.728 20.4342)" class="st111" width="305.5" height="0.2"/>
	
		<rect x="294.7" y="225.6" transform="matrix(0.999 -4.542070e-02 4.542070e-02 0.999 -9.7893 20.557)" class="st112" width="305.5" height="0.2"/>
	
		<rect x="294.7" y="225.7" transform="matrix(0.999 -4.515651e-02 4.515651e-02 0.999 -9.7414 20.4365)" class="st113" width="305.5" height="0.2"/>
	
		<rect x="294.7" y="225.9" transform="matrix(0.999 -4.572727e-02 4.572727e-02 0.999 -9.8651 20.6982)" class="st114" width="305.5" height="0.2"/>
	
		<rect x="294.7" y="226" transform="matrix(0.999 -4.573056e-02 4.573056e-02 0.999 -9.8723 20.7002)" class="st115" width="305.5" height="0.2"/>
	
		<rect x="294.7" y="226.2" transform="matrix(0.9989 -4.656813e-02 4.656813e-02 0.9989 -10.0509 21.0842)" class="st116" width="305.5" height="0.2"/>
	
		<rect x="294.8" y="226.3" transform="matrix(0.999 -4.544028e-02 4.544028e-02 0.999 -9.8254 20.5682)" class="st117" width="305.5" height="0.2"/>
	
		<rect x="294.8" y="226.4" transform="matrix(0.999 -4.570758e-02 4.570758e-02 0.999 -9.8869 20.691)" class="st118" width="305.5" height="0.2"/>
	
		<rect x="294.8" y="226.6" transform="matrix(0.999 -4.572727e-02 4.572727e-02 0.999 -9.8974 20.7004)" class="st119" width="305.5" height="0.2"/>
	
		<rect x="294.8" y="226.7" transform="matrix(0.999 -4.513381e-02 4.513381e-02 0.999 -9.7814 20.4292)" class="st120" width="305.5" height="0.2"/>
	
		<rect x="294.8" y="226.9" transform="matrix(0.999 -4.515651e-02 4.515651e-02 0.999 -9.7924 20.44)" class="st121" width="305.5" height="0.2"/>
	
		<rect x="294.8" y="227" transform="matrix(0.9989 -4.656813e-02 4.656813e-02 0.9989 -10.0904 21.0869)" class="st122" width="305.5" height="0.2"/>
	
		<rect x="295.9" y="227.1" transform="matrix(0.999 -4.573134e-02 4.573134e-02 0.999 -11.015 20.779)" class="st122" width="305.5" height="48"/>
</g>
</svg>
