<?xml version="1.0" encoding="UTF-8"?>
<svg xmlns="http://www.w3.org/2000/svg" width="240" height="69.382" viewBox="0 0 240 69.382">
  <g transform="translate(-18.411 -35.75)">
    <path d="M297.954,47.923C293.4,52.571,291.986,61,296,65.961c3.28,4.326,9.017,4.644,13.073,1.321,5.008-4.283,6.6-13.982,2.551-18.994-3.872-4.875-9.656-4.691-13.665-.364Zm-8.661-3.049c.137-2,.364-4.056.549-6.011a3.11,3.11,0,0,0-3.053-3.053,3.176,3.176,0,0,0-3.053,3.053q-.682,6.149-.956,12.3c-.227,4.1-.227,8.151-.137,12.254,0,2.959.686,8.018,4.283,8.018a3.012,3.012,0,0,0,2.14-.866,2.745,2.745,0,0,0,.913-2.187c-.047-1.183-.913-2.05-1.14-3.1a132.16,132.16,0,0,1,.455-20.405ZM276.71,60a3.083,3.083,0,0,0-3.782,2.14,6.779,6.779,0,0,1-6.6,5.283c-2.5-.137-4.1-1.775-5.149-3.825a19.562,19.562,0,0,1-.227-15.534,11.083,11.083,0,0,1,3.19-4.1c2-1.5,4.691-1.822,6.329-.411,1.183,1.05.866,2.234,1.732,3.28,1.685,2.277,5.51.639,5.373-1.959a8.359,8.359,0,0,0-4.326-6.925c-4.871-2.963-11.525-1.093-14.9,3.006a19.275,19.275,0,0,0-3.782,6.968,25.082,25.082,0,0,0,.137,15.942c3.6,10.522,16.126,13.21,22.5,3.6a10.646,10.646,0,0,0,1.638-3.872,2.987,2.987,0,0,0-2.14-3.6Zm83.772-7.1c.047-.274.047-.592.094-.866.18-1.411.317-2.778.5-4.236.408-3.554-5.694-4.283-6.149,0-.592,4.918-1,9.84-1.274,14.8-.094,1.411-.137,2.825-.184,4.189.043,4.193,5.008,4.009,6.2.592.549-1.5,1.411-2.916,2.1-4.373,1.411-2.959,2.825-6.243,5.1-8.108,1.912-1.548,3.28-.047,4.373,4.464a43.608,43.608,0,0,1,1.278,7.881c0,4.052,6.376,3.782,6.1,0-.317-3.644-1.093-10.02-2.916-14.441-3.6-8.61-10.749-5.647-15.213.09Zm35.449,1.685a52.813,52.813,0,0,0-4.738-2.551c-2.14-1.093-2.324-3.507.364-3.507a6.784,6.784,0,0,1,4.511,2.367,3.24,3.24,0,0,0,2.144.909,3.278,3.278,0,0,0,2.187-.909,3.178,3.178,0,0,0,0-4.373,11.327,11.327,0,0,0-10.475-3.919,7.9,7.9,0,0,0-6.423,7.152,7.263,7.263,0,0,0,4.326,7.332c1.732,1,3.6,1.732,5.149,2.825a3.271,3.271,0,0,1,.682,5.239c-1.732,1.822-5.145,1.183-6.423-.776-2.778-3.143-7.062,1.595-4.283,4.373a11.506,11.506,0,0,0,7.791,3.28,9.605,9.605,0,0,0,9.656-6.286c1.595-4.416-.866-8.927-4.464-11.161ZM342.977,47.2a71.806,71.806,0,0,1,.592,12.3c-.455,5.514-3.327,7.289-5.788,1.458a37.744,37.744,0,0,1-2.187-7.881c-.913-3.1-4.648-2.959-5.878,0a58.264,58.264,0,0,1-2.367,7.015c-4.373,9.656-4.052.09-3.691-4.507q.141-1.164.274-2.461c.317-1.959.682-3.829,1.14-5.784.956-3.692-4.738-5.012-5.878-1.458-1.548,5.874-4.1,17.948-.227,23.231,1.775,2.414,4.918,3.053,7.881,1.23,2.414-1.5,4.326-4.326,5.647-6.74,1.458,3.872,4.738,7.152,9.017,7.015a7.753,7.753,0,0,0,6.333-3.688c1.685-2.778,1.865-6.423,1.865-9.7a83.06,83.06,0,0,0-.639-10.02c-.682-3.782-5.968-3.6-6.1,0Z" transform="translate(-142.863 -0.036)" fill="#eb193c"></path>
    <path d="M76.66,52.832c.047-.274.047-.592.094-.866.18-1.411.317-2.778.5-4.236.408-3.554-5.694-4.283-6.149,0-.592,4.918-1,9.84-1.274,14.8-.09,1.411-.137,2.825-.184,4.189.047,4.193,5.012,4.009,6.2.592.549-1.5,1.411-2.916,2.1-4.373,1.411-2.959,2.825-6.243,5.1-8.108,1.912-1.548,3.28-.047,4.373,4.464a43.6,43.6,0,0,1,1.278,7.881c0,4.052,6.376,3.782,6.1,0-.317-3.644-1.093-10.02-2.916-14.441-3.6-8.61-10.749-5.647-15.213.09ZM59.8,51.739a60.508,60.508,0,0,0-.819,15.989c.5,4.373,6.513,3.507,6.1,0a58.191,58.191,0,0,1,.682-14.942c.909-4.146-5.467-4.554-5.968-1.05Zm3.554-11.114c-4.146.364-3.782,6.058.09,5.964S67.678,40.261,63.352,40.625Zm-8.986,4.189c.137-2,.364-4.056.549-6.011a3.113,3.113,0,0,0-3.053-3.053A3.176,3.176,0,0,0,48.809,38.8q-.682,6.149-.956,12.3c-.227,4.1-.227,8.151-.137,12.254,0,2.959.686,8.018,4.283,8.018a3.025,3.025,0,0,0,2.14-.866,2.729,2.729,0,0,0,.909-2.187c-.047-1.183-.909-2.05-1.14-3.1a132.16,132.16,0,0,1,.455-20.405Zm48.773,1.775c3.872-.09,4.236-6.329-.09-5.964C98.9,40.989,99.267,46.683,103.139,46.589Zm1.642,21.138a58.191,58.191,0,0,1,.682-14.942c.909-4.146-5.467-4.554-5.968-1.05a60.674,60.674,0,0,0-.819,15.989c.5,4.373,6.513,3.507,6.1,0Zm.933,29.846a8.71,8.71,0,0,1-2.61.325,5.487,5.487,0,0,1-2.3-.443,4.2,4.2,0,0,1-1.579-1.246,5.26,5.26,0,0,1-.921-1.9,9.179,9.179,0,0,1-.3-2.418,7.993,7.993,0,0,1,.384-2.61,5.229,5.229,0,0,1,1.066-1.869,4.358,4.358,0,0,1,1.618-1.113,5.409,5.409,0,0,1,2.01-.372,7.946,7.946,0,0,1,2.312.321,7,7,0,0,1,1.638.682l.886-2.469c-.114-.063-.306-.169-.576-.31a6,6,0,0,0-1.031-.408,13.267,13.267,0,0,0-1.462-.349,10.47,10.47,0,0,0-1.869-.157,8.743,8.743,0,0,0-3.186.576A7.259,7.259,0,0,0,97.206,85.5a7.96,7.96,0,0,0-1.736,2.716,9.976,9.976,0,0,0-.635,3.688,11.424,11.424,0,0,0,.549,3.688,7.5,7.5,0,0,0,1.579,2.716,6.6,6.6,0,0,0,2.516,1.689,9.2,9.2,0,0,0,3.351.576,13.627,13.627,0,0,0,1.795-.11,11.647,11.647,0,0,0,1.509-.286,10.194,10.194,0,0,0,1.16-.372,4.122,4.122,0,0,0,.78-.384l-.815-2.465a10.367,10.367,0,0,1-1.556.611ZM41.779,59.941A3.083,3.083,0,0,0,38,62.08a6.779,6.779,0,0,1-6.6,5.283c-2.5-.137-4.1-1.775-5.149-3.825A19.562,19.562,0,0,1,26.017,48a11.123,11.123,0,0,1,3.19-4.1c2-1.5,4.691-1.822,6.329-.411,1.183,1.05.866,2.234,1.732,3.28,1.685,2.277,5.51.639,5.377-1.959a8.359,8.359,0,0,0-4.326-6.925c-4.875-2.963-11.525-1.093-14.9,3.006a19.274,19.274,0,0,0-3.782,6.968A25.109,25.109,0,0,0,19.779,63.8c3.6,10.522,16.126,13.21,22.5,3.6a10.724,10.724,0,0,0,1.642-3.872,2.987,2.987,0,0,0-2.14-3.6Zm75.762,37.887a5.48,5.48,0,0,1-.874.118c-.392.031-.76.047-1.113.047a2.3,2.3,0,0,1-2.046-.862,5.285,5.285,0,0,1-.588-2.872V87.7h-2.9v7.015a9.708,9.708,0,0,0,.263,2.336,4.7,4.7,0,0,0,.874,1.83,4.066,4.066,0,0,0,1.63,1.2,6.446,6.446,0,0,0,2.528.431,17.92,17.92,0,0,0,2.943-.227q1.34-.229,2.179-.443V87.694h-2.9v10.13Zm48.479-9.076a3.9,3.9,0,0,0-1.568-1.007,7.1,7.1,0,0,0-2.418-.361,12.4,12.4,0,0,0-2.249.192,11.289,11.289,0,0,0-1.6.384l.361,2.347a8.222,8.222,0,0,1,1.364-.337,11.163,11.163,0,0,1,1.846-.145,3.4,3.4,0,0,1,1.234.192,2.039,2.039,0,0,1,.792.537,1.952,1.952,0,0,1,.419.8,3.8,3.8,0,0,1,.121.956v.478a8.926,8.926,0,0,0-1.125-.2,9.1,9.1,0,0,0-1.007-.059,9.506,9.506,0,0,0-1.975.2,5.019,5.019,0,0,0-1.665.67,3.4,3.4,0,0,0-1.136,1.211,3.664,3.664,0,0,0-.419,1.822,4.431,4.431,0,0,0,.372,1.893,3.245,3.245,0,0,0,1.031,1.246,4.242,4.242,0,0,0,1.591.694,9.1,9.1,0,0,0,2.061.216,20.462,20.462,0,0,0,3.053-.2c.9-.137,1.579-.251,2.022-.349V92.341a7.641,7.641,0,0,0-.251-2.022,3.763,3.763,0,0,0-.839-1.568Zm-1.713,9.291a10.907,10.907,0,0,1-2.038.145,3.346,3.346,0,0,1-1.748-.4,1.531,1.531,0,0,1-.647-1.426,1.493,1.493,0,0,1,.239-.874,1.573,1.573,0,0,1,.635-.537,2.923,2.923,0,0,1,.886-.263,6.828,6.828,0,0,1,.968-.071,6.623,6.623,0,0,1,1.007.071,5.68,5.68,0,0,1,.694.145v3.209Zm17.227-6.787a6.059,6.059,0,0,0-1.234-2.069,5.287,5.287,0,0,0-1.9-1.328,6.243,6.243,0,0,0-2.43-.466,6.156,6.156,0,0,0-2.418.466,5.477,5.477,0,0,0-1.9,1.328,6,6,0,0,0-1.246,2.069,8.453,8.453,0,0,0,0,5.4,6.094,6.094,0,0,0,1.234,2.085,5.477,5.477,0,0,0,1.893,1.34,6.019,6.019,0,0,0,2.441.478,6.17,6.17,0,0,0,2.453-.478,5.486,5.486,0,0,0,1.9-1.34,5.966,5.966,0,0,0,1.219-2.085,8.119,8.119,0,0,0,.431-2.7,7.845,7.845,0,0,0-.443-2.7Zm-3.327,5.686a2.828,2.828,0,0,1-4.479,0,5.006,5.006,0,0,1-.8-2.994,4.849,4.849,0,0,1,.8-2.959,2.847,2.847,0,0,1,4.479,0,4.9,4.9,0,0,1,.8,2.959A5.039,5.039,0,0,1,178.208,96.942Zm-8.5-26.166a1.423,1.423,0,0,0-2.006.165c-1.948,2.292-4.1,3.46-6.4,3.472h-.039c-4.542,0-8.41-4.385-8.445-4.428a1.424,1.424,0,0,0-2.151,1.865c.192.219,4.742,5.416,10.6,5.416h.039c3.17-.012,6.051-1.517,8.566-4.475a1.423,1.423,0,0,0-.165-2.006Zm-15.75,27.1a7.27,7.27,0,0,1-1.458.145,3.339,3.339,0,0,1-2.825-1.089,4.723,4.723,0,0,1-.839-2.959,4.655,4.655,0,0,1,.886-3.006,3.178,3.178,0,0,1,2.586-1.066,5.984,5.984,0,0,1,1.352.145,6.74,6.74,0,0,1,1.14.357l.623-2.371a8.772,8.772,0,0,0-3.354-.647,6.438,6.438,0,0,0-2.586.5,5.71,5.71,0,0,0-1.952,1.387,6.121,6.121,0,0,0-1.234,2.1,7.723,7.723,0,0,0-.431,2.6,8.75,8.75,0,0,0,.3,2.347,6.222,6.222,0,0,0,.9,1.928,4.97,4.97,0,0,0,1.509,1.4,6.077,6.077,0,0,0,2.155.764c-.114.223-.223.466-.337.729a6.575,6.575,0,0,0-.263.705l.239.074a5.01,5.01,0,0,1,.67.3.6.6,0,0,1,.337.564.471.471,0,0,1-.227.431,1.2,1.2,0,0,1-.635.145,3.316,3.316,0,0,1-.792-.094c-.255-.063-.462-.121-.623-.169l-.337,1.724a6.128,6.128,0,0,0,2.034.31,3.3,3.3,0,0,0,2.155-.6,1.82,1.82,0,0,0,.721-1.438,2.028,2.028,0,0,0-.3-1.125,2.567,2.567,0,0,0-1.066-.815c.031-.078.071-.176.121-.286s.1-.231.165-.361a11.771,11.771,0,0,0,1.748-.216,5.1,5.1,0,0,0,1.27-.384l-.408-2.394a6.9,6.9,0,0,1-1.246.361Zm-23.513-10.31q-.382-.059-.764-.094t-.67-.035a13.283,13.283,0,0,0-2.79.274,16.056,16.056,0,0,0-2.1.588v11.925h2.9V90.19a6.911,6.911,0,0,1,.756-.169,5.9,5.9,0,0,1,1.019-.094,7.16,7.16,0,0,1,1.473.133,9.235,9.235,0,0,1,1,.251l.5-2.441c-.145-.047-.333-.1-.572-.157s-.486-.1-.741-.145Zm11.482,1.183a3.9,3.9,0,0,0-1.568-1.007,7.1,7.1,0,0,0-2.418-.361,12.4,12.4,0,0,0-2.249.192,11.291,11.291,0,0,0-1.6.384l.361,2.347a8.22,8.22,0,0,1,1.364-.337,11.163,11.163,0,0,1,1.846-.145,3.4,3.4,0,0,1,1.234.192,2.039,2.039,0,0,1,.792.537,1.952,1.952,0,0,1,.419.8,3.8,3.8,0,0,1,.121.956v.478a8.93,8.93,0,0,0-1.125-.2,9.1,9.1,0,0,0-1.007-.059,9.507,9.507,0,0,0-1.975.2,5.02,5.02,0,0,0-1.665.67,3.4,3.4,0,0,0-1.136,1.211,3.664,3.664,0,0,0-.419,1.822,4.431,4.431,0,0,0,.372,1.893,3.246,3.246,0,0,0,1.031,1.246,4.242,4.242,0,0,0,1.591.694,9.1,9.1,0,0,0,2.061.216,20.462,20.462,0,0,0,3.053-.2c.9-.137,1.579-.251,2.022-.349V92.341a7.641,7.641,0,0,0-.251-2.022,3.763,3.763,0,0,0-.839-1.568Zm-1.713,9.291a10.907,10.907,0,0,1-2.038.145,3.346,3.346,0,0,1-1.748-.4,1.531,1.531,0,0,1-.647-1.426,1.493,1.493,0,0,1,.239-.874,1.6,1.6,0,0,1,.635-.537,2.923,2.923,0,0,1,.886-.263,6.828,6.828,0,0,1,.968-.071,6.623,6.623,0,0,1,1.007.071,5.68,5.68,0,0,1,.694.145v3.209Z" fill="#1946a0"></path>
    <path d="M375.354,68.071c.674,1.172-.306,3-2.195,4.091s-3.962,1.023-4.64-.145.306-3,2.195-4.091,3.962-1.023,4.64.145" transform="translate(-212.779 -19.095)" fill="#fff"></path>
  </g>
</svg>
